<?xml version="1.0" encoding="UTF-8" standalone="no"?>
<!-- Created with Inkscape (http://www.inkscape.org/) -->

<svg
   width="68.720352mm"
   height="8.3106022mm"
   viewBox="0 0 68.720352 8.3106022"
   version="1.1"
   id="svg1"
   inkscape:version="1.3 (0e150ed6c4, 2023-07-21)"
   sodipodi:docname="HelloWorld.svg"
   xmlns:inkscape="http://www.inkscape.org/namespaces/inkscape"
   xmlns:sodipodi="http://sodipodi.sourceforge.net/DTD/sodipodi-0.dtd"
   xmlns="http://www.w3.org/2000/svg"
   xmlns:svg="http://www.w3.org/2000/svg">
  <sodipodi:namedview
     id="namedview1"
     pagecolor="#ffffff"
     bordercolor="#666666"
     borderopacity="1.0"
     inkscape:showpageshadow="2"
     inkscape:pageopacity="0.0"
     inkscape:pagecheckerboard="0"
     inkscape:deskcolor="#d1d1d1"
     inkscape:document-units="mm"
     inkscape:zoom="2.9255612"
     inkscape:cx="106.4753"
     inkscape:cy="-12.818054"
     inkscape:window-width="1920"
     inkscape:window-height="1017"
     inkscape:window-x="-8"
     inkscape:window-y="-8"
     inkscape:window-maximized="1"
     inkscape:current-layer="layer1" />
  <defs
     id="defs1">
    <rect
       x="83.402802"
       y="243.37212"
       width="671.32422"
       height="330.87668"
       id="rect1" />
  </defs>
  <g
     inkscape:label="Layer 1"
     inkscape:groupmode="layer"
     id="layer1"
     transform="translate(-22.570198,-65.583077)">
    <path
       style="font-weight:bold;font-size:40px;line-height:1.25;font-family:'Roboto Mono for Powerline';-inkscape-font-specification:'Roboto Mono for Powerline, Bold';letter-spacing:0px;word-spacing:0px;white-space:pre;fill:none;stroke:#000000;stroke-opacity:1"
       d="m 104.73047,278.37305 h -5.429689 v -12.32422 h -8.046875 v 12.32422 h -5.449219 v -28.4375 h 5.449219 v 11.66015 h 8.046875 v -11.66015 h 5.429689 z m 15.68359,0.39062 q -2.4414,0 -4.43359,-0.80078 -1.99219,-0.80078 -3.41797,-2.16797 -1.42578,-1.38672 -2.20703,-3.24219 -0.76172,-1.875 -0.76172,-4.0039 v -0.78125 q 0,-2.42188 0.76172,-4.41406 0.76172,-2.01172 2.12891,-3.45704 1.36718,-1.44531 3.24218,-2.24609 1.875,-0.80078 4.08203,-0.80078 2.28516,0 4.0625,0.76172 1.79688,0.74219 3.02735,2.10937 1.25,1.36719 1.89453,3.30078 0.64453,1.91407 0.64453,4.23829 v 2.30468 h -14.33594 q 0.15625,1.07422 0.625,1.97266 0.48828,0.87891 1.23047,1.52344 0.74219,0.64453 1.69922,0.99609 0.95703,0.35156 2.08984,0.35156 0.80079,0 1.58204,-0.15625 0.80078,-0.15625 1.52343,-0.44922 0.72266,-0.3125 1.34766,-0.76171 0.625,-0.44922 1.09375,-1.05469 l 2.71484,2.92969 q -0.50781,0.72265 -1.32812,1.42578 -0.80078,0.68359 -1.91406,1.23047 -1.09375,0.52734 -2.44141,0.85937 -1.34766,0.33203 -2.91016,0.33203 z m -0.64453,-17.51953 q -0.91797,0 -1.67969,0.33203 -0.76171,0.3125 -1.34765,0.91797 -0.56641,0.60547 -0.95703,1.44531 -0.39063,0.83985 -0.58594,1.875 h 8.90625 v -0.42968 q -0.0391,-0.85938 -0.33203,-1.6211 -0.29297,-0.76172 -0.83985,-1.30859 -0.54687,-0.56641 -1.34765,-0.87891 -0.78125,-0.33203 -1.81641,-0.33203 z m 15.52734,-12.87109 h 11.81641 v 25.58593 h 6.05469 v 4.41407 h -17.8711 v -4.41407 h 6.32813 v -21.15234 h -6.32813 z m 24.00391,0 h 11.81641 v 25.58593 h 6.05468 v 4.41407 h -17.87109 v -4.41407 h 6.32813 v -21.15234 h -6.32813 z m 22.12891,19.23828 q 0,-2.30469 0.66406,-4.25781 0.66406,-1.97266 1.93359,-3.41797 1.28907,-1.44532 3.125,-2.26563 1.85547,-0.82031 4.23828,-0.82031 2.38282,0 4.23829,0.82031 1.85546,0.82031 3.125,2.26563 1.28906,1.44531 1.95312,3.41797 0.66406,1.95312 0.66406,4.25781 v 0.41015 q 0,2.32422 -0.66406,4.29688 -0.66406,1.95312 -1.93359,3.39844 -1.26953,1.44531 -3.125,2.26562 -1.85547,0.80078 -4.21875,0.80078 -2.38282,0 -4.25782,-0.80078 -1.85546,-0.82031 -3.14453,-2.26562 -1.26953,-1.44532 -1.93359,-3.39844 -0.66406,-1.97266 -0.66406,-4.29688 z m 5.42968,0.41015 q 0,1.32813 0.25391,2.5 0.25391,1.15235 0.80078,2.03125 0.54688,0.85938 1.40625,1.36719 0.87891,0.50781 2.10938,0.50781 1.1914,0 2.05078,-0.50781 0.85937,-0.50781 1.38672,-1.36719 0.54687,-0.8789 0.80078,-2.03125 0.2539,-1.17187 0.2539,-2.5 v -0.41015 q 0,-1.28906 -0.2539,-2.44141 -0.25391,-1.15234 -0.80078,-2.03125 -0.52735,-0.8789 -1.38672,-1.38672 -0.85938,-0.50781 -2.08985,-0.50781 -1.21093,0 -2.07031,0.50781 -0.85937,0.50782 -1.40625,1.38672 -0.54687,0.87891 -0.80078,2.03125 -0.25391,1.15235 -0.25391,2.44141 z m 57.03125,-0.95703 2.07032,-17.1289 H 251 l -3.94531,28.4375 h -4.96094 l -2.69531,-16.79688 -2.59766,16.79688 h -4.96094 l -3.90625,-28.4375 h 5.01953 l 2.03125,17.01172 2.42188,-17.01172 h 3.92578 z m 9.55079,0.54688 q 0,-2.30469 0.66406,-4.25781 0.66406,-1.97266 1.93359,-3.41797 1.28906,-1.44532 3.125,-2.26563 1.85547,-0.82031 4.23828,-0.82031 2.38282,0 4.23828,0.82031 1.85547,0.82031 3.125,2.26563 1.28907,1.44531 1.95313,3.41797 0.66406,1.95312 0.66406,4.25781 v 0.41015 q 0,2.32422 -0.66406,4.29688 -0.66406,1.95312 -1.93359,3.39844 -1.26954,1.44531 -3.125,2.26562 -1.85547,0.80078 -4.21875,0.80078 -2.38282,0 -4.25782,-0.80078 -1.85547,-0.82031 -3.14453,-2.26562 -1.26953,-1.44532 -1.93359,-3.39844 -0.66406,-1.97266 -0.66406,-4.29688 z m 5.42968,0.41015 q 0,1.32813 0.25391,2.5 0.25391,1.15235 0.80078,2.03125 0.54688,0.85938 1.40625,1.36719 0.87891,0.50781 2.10938,0.50781 1.1914,0 2.05078,-0.50781 0.85937,-0.50781 1.38672,-1.36719 0.54687,-0.8789 0.80078,-2.03125 0.2539,-1.17187 0.2539,-2.5 v -0.41015 q 0,-1.28906 -0.2539,-2.44141 -0.25391,-1.15234 -0.80078,-2.03125 -0.52735,-0.8789 -1.38672,-1.38672 -0.85938,-0.50781 -2.08985,-0.50781 -1.21093,0 -2.07031,0.50781 -0.85937,0.50782 -1.40625,1.38672 -0.54687,0.87891 -0.80078,2.03125 -0.25391,1.15235 -0.25391,2.44141 z m 34.49219,-11.17187 q 1.23047,0 2.26563,0.17578 1.05468,0.15625 1.69921,0.35156 l -0.80078,5.41016 q -1.07422,-0.25391 -2.20703,-0.37109 -1.11328,-0.13672 -2.1289,-0.13672 -2.28516,0 -3.67188,0.8789 -1.36719,0.87891 -2.05078,2.51953 v 12.69532 h -5.42969 v -21.13282 h 5.0586 l 0.2539,3.45704 q 1.28906,-1.79688 3.08594,-2.8125 1.79687,-1.03516 3.92578,-1.03516 z m 9.96094,-8.47656 h 11.8164 v 25.58593 h 6.05469 v 4.41407 h -17.87109 v -4.41407 h 6.32812 v -21.15234 h -6.32812 z m 22.30469,19.27734 q 0,-2.40234 0.54687,-4.39453 0.56641,-1.99219 1.64063,-3.41797 1.07421,-1.42578 2.59765,-2.20703 1.54297,-0.78125 3.51563,-0.78125 1.66015,0 2.91015,0.60547 1.26953,0.58594 2.2461,1.67969 v -10.76172 h 5.44922 v 30 h -4.90235 l -0.27344,-2.20703 q -0.99609,1.23046 -2.34375,1.91406 -1.34765,0.68359 -3.125,0.68359 -1.93359,0 -3.47656,-0.80078 -1.52344,-0.82031 -2.59765,-2.24609 -1.05469,-1.42578 -1.6211,-3.37891 -0.5664,-1.97266 -0.5664,-4.27734 z m 5.42968,0.41016 q 0,1.32812 0.21485,2.48047 0.23437,1.13281 0.74218,1.99218 0.50782,0.83985 1.3086,1.32813 0.80078,0.48828 1.95312,0.48828 1.40625,0 2.32422,-0.60547 0.9375,-0.60547 1.48438,-1.66016 v -8.55468 q -0.54688,-1.07422 -1.46485,-1.66016 -0.91797,-0.60547 -2.30468,-0.60547 -1.15235,0 -1.97266,0.50781 -0.80078,0.48829 -1.30859,1.36719 -0.50782,0.85938 -0.74219,2.03125 -0.23438,1.15235 -0.23438,2.48047 z"
       id="text1"
       transform="scale(0.26458333)"
       aria-label="Hello World" />
  </g>
</svg>
