M48
; DRILL file {KiCad 7.0.8} date Tue Feb 27 09:10:02 2024
; FORMAT={-:-/ absolute / inch / decimal}
; #@! TF.CreationDate,2024-02-27T09:10:02-06:00
; #@! TF.GenerationSoftware,Kicad,Pcbnew,7.0.8
; #@! TF.FileFunction,MixedPlating,1,2
FMAT,2
INCH
; #@! TA.AperFunction,Plated,PTH,ViaDrill
T1C0.0138
; #@! TA.AperFunction,Plated,PTH,ViaDrill
T2C0.0157
; #@! TA.AperFunction,Plated,PTH,ComponentDrill
T3C0.0197
; #@! TA.AperFunction,Plated,PTH,ComponentDrill
T4C0.0236
; #@! TA.AperFunction,Plated,PTH,ComponentDrill
T5C0.0394
; #@! TA.AperFunction,NonPlated,NPTH,ComponentDrill
T6C0.0256
; #@! TA.AperFunction,NonPlated,NPTH,ComponentDrill
T7C0.0866
%
G90
G05
T1
X7.4173Y-3.4094
X7.4291Y-3.3543
X7.4473Y-3.3371
X7.4646Y-3.3543
X7.4882Y-3.3543
X7.5236Y-3.3543
X7.5551Y-3.2205
X7.5728Y-3.4193
X7.8976Y-3.5551
X8.0394Y-3.3425
X8.2323Y-3.3622
X8.2638Y-3.3898
X8.3622Y-3.3898
X8.3858Y-3.315
X8.4134Y-3.2756
X8.5039Y-3.4803
X8.5276Y-3.2441
X8.5472Y-3.1772
X8.5551Y-3.5787
X8.5591Y-3.5
X8.6811Y-3.4528
T2
X6.6457Y-3.3228
X6.6457Y-3.4961
X6.7165Y-3.4094
X6.9291Y-3.5039
X6.9449Y-3.4679
X6.9528Y-3.2205
X6.9606Y-3.6063
X6.9764Y-3.3307
X7.0866Y-3.3858
X7.1772Y-3.6083
X7.2065Y-3.3787
X7.2283Y-3.2362
X7.252Y-3.5512
X7.2598Y-3.2677
X7.3071Y-3.3386
X7.3383Y-3.292
X7.4015Y-3.2633
X7.4113Y-3.2252
X7.4252Y-3.4961
X7.5276Y-3.622
X7.5797Y-3.3445
X7.6861Y-3.3096
X7.7536Y-3.4173
X7.7953Y-3.5187
X7.9134Y-3.4488
X7.9232Y-3.626
X8.0613Y-3.3669
X8.063Y-3.4252
X8.1654Y-3.5433
X8.1811Y-3.6063
X8.2054Y-3.2179
X8.252Y-3.2126
X8.2594Y-3.3126
X8.2599Y-3.2732
X8.3071Y-3.6063
X8.3504Y-3.5433
X8.3976Y-3.4538
X8.4173Y-3.5748
X8.4486Y-3.3073
X8.4527Y-3.4558
X8.4707Y-3.2747
X8.5039Y-3.3228
X8.5172Y-3.563
X8.5205Y-3.3791
X8.5276Y-3.622
X8.554Y-3.4409
X8.572Y-3.4059
T3
X7.7283Y-3.5906
X7.7677Y-3.5906
X7.8071Y-3.5906
X7.8465Y-3.5906
T5
X8.6299Y-3.2071
X8.6299Y-3.3071
X8.6299Y-3.4071
X8.6299Y-3.5071
X8.6299Y-3.6071
T6
X6.8342Y-3.2957
X6.8342Y-3.5232
T7
X7.2756Y-3.4094
X8.1406Y-3.4104
T4
G00X6.7062Y-3.2394
M15
G01X6.6747Y-3.2394
M16
G05
G00X6.7062Y-3.5795
M15
G01X6.6747Y-3.5795
M16
G05
G00X6.8755Y-3.2394
M15
G01X6.8322Y-3.2394
M16
G05
G00X6.8755Y-3.5795
M15
G01X6.8322Y-3.5795
M16
G05
T0
M30
