%TF.GenerationSoftware,KiCad,Pcbnew,7.0.8*%
%TF.CreationDate,2024-02-27T09:09:56-06:00*%
%TF.ProjectId,CH32VClamp,43483332-5643-46c6-916d-702e6b696361,rev?*%
%TF.SameCoordinates,Original*%
%TF.FileFunction,Copper,L2,Bot*%
%TF.FilePolarity,Positive*%
%FSLAX46Y46*%
G04 Gerber Fmt 4.6, Leading zero omitted, Abs format (unit mm)*
G04 Created by KiCad (PCBNEW 7.0.8) date 2024-02-27 09:09:56*
%MOMM*%
%LPD*%
G01*
G04 APERTURE LIST*
%TA.AperFunction,ComponentPad*%
%ADD10R,1.700000X1.700000*%
%TD*%
%TA.AperFunction,ComponentPad*%
%ADD11O,1.700000X1.700000*%
%TD*%
%TA.AperFunction,ComponentPad*%
%ADD12R,0.850000X0.850000*%
%TD*%
%TA.AperFunction,ComponentPad*%
%ADD13O,0.850000X0.850000*%
%TD*%
%TA.AperFunction,ComponentPad*%
%ADD14O,2.100000X1.000000*%
%TD*%
%TA.AperFunction,ComponentPad*%
%ADD15O,1.800000X1.000000*%
%TD*%
%TA.AperFunction,ViaPad*%
%ADD16C,0.300000*%
%TD*%
%TA.AperFunction,ViaPad*%
%ADD17C,0.800000*%
%TD*%
%TA.AperFunction,Conductor*%
%ADD18C,0.200000*%
%TD*%
G04 APERTURE END LIST*
D10*
%TO.P,J4,1,Pin_1*%
%TO.N,VCC003*%
X219200000Y-91620000D03*
D11*
%TO.P,J4,2,Pin_2*%
%TO.N,SWCL*%
X219200000Y-89080000D03*
%TO.P,J4,3,Pin_3*%
%TO.N,SWIO*%
X219200000Y-86540000D03*
%TO.P,J4,4,Pin_4*%
%TO.N,GND*%
X219200000Y-84000000D03*
%TO.P,J4,5,Pin_5*%
%TO.N,MULTI2*%
X219200000Y-81460000D03*
%TD*%
D12*
%TO.P,J2,1,Pin_1*%
%TO.N,GND*%
X196300000Y-91200000D03*
D13*
%TO.P,J2,2,Pin_2*%
%TO.N,VDD*%
X197300000Y-91200000D03*
%TO.P,J2,3,Pin_3*%
%TO.N,TX*%
X198300000Y-91200000D03*
%TO.P,J2,4,Pin_4*%
%TO.N,RX*%
X199300000Y-91200000D03*
%TD*%
D14*
%TO.P,J1,S1,SHIELD*%
%TO.N,GND*%
X174087500Y-82280000D03*
D15*
X169937500Y-82280000D03*
D14*
X174087500Y-90920000D03*
D15*
X169937500Y-90920000D03*
%TD*%
D16*
%TO.N,GND*%
X220500000Y-87700000D03*
X212400000Y-86100000D03*
X209900000Y-86100000D03*
X209100000Y-85400000D03*
X191900000Y-81800000D03*
%TO.N,VCC003*%
X216000000Y-88400000D03*
X217400000Y-88900000D03*
%TO.N,MULTI2*%
X191100000Y-85200000D03*
%TO.N,GND*%
X200600000Y-90300000D03*
X217300000Y-90900000D03*
X217100000Y-80700000D03*
X216600000Y-82400000D03*
X213700000Y-83200000D03*
X213000000Y-84200000D03*
X192350000Y-86850000D03*
%TO.N,SWCL*%
X204200000Y-84900000D03*
X189600000Y-85200000D03*
%TO.N,ProgAct*%
X190200000Y-85200000D03*
%TO.N,SWIO*%
X189162483Y-84762483D03*
%TO.N,VCCCTL3*%
X188700000Y-85200000D03*
%TO.N,VCCCTL5*%
X188400000Y-86600000D03*
D17*
%TO.N,VDD*%
X184400000Y-83000000D03*
X183045400Y-85818399D03*
X182300500Y-91650107D03*
X207800000Y-91600000D03*
%TO.N,GND*%
X201250000Y-92100000D03*
X211000000Y-91600000D03*
X207400000Y-90000000D03*
X214699639Y-87777496D03*
X216600000Y-92000000D03*
X217728944Y-86510476D03*
X215157009Y-83177907D03*
X185600000Y-84800000D03*
X188245924Y-81919288D03*
X196942604Y-86800000D03*
X204800000Y-87000000D03*
X204757720Y-85518471D03*
X201000000Y-87600000D03*
X188600000Y-88800000D03*
X184200000Y-90200000D03*
X191200000Y-92000000D03*
X176800000Y-91600000D03*
X168800000Y-88800000D03*
X170600000Y-86600000D03*
X168800000Y-84400000D03*
X176600000Y-81800000D03*
X183600000Y-82200000D03*
X180000000Y-86000000D03*
%TO.N,SWPUC*%
X209600000Y-81600000D03*
X187998557Y-82888484D03*
%TO.N,SWPUD*%
X208416887Y-81733932D03*
X186392834Y-83617216D03*
%TO.N,VCCCTL5*%
X209788166Y-84139861D03*
%TO.N,VCCCTL3*%
X216337363Y-90500000D03*
%TO.N,ProgAct*%
X213300000Y-87725427D03*
%TO.N,Net-(U1-LNA_IN)*%
X195228159Y-84063000D03*
X192524224Y-84951498D03*
%TO.N,Net-(F1-Pad1)*%
X176000000Y-89000000D03*
X198000000Y-89375000D03*
%TO.N,Net-(J1-CC2)*%
X177200000Y-84600000D03*
X176401025Y-88085000D03*
%TO.N,VCC003*%
X216000000Y-84400000D03*
%TO.N,VCCCTL3*%
X217272050Y-87400000D03*
X209800756Y-83139938D03*
%TO.N,VCCCTL5*%
X216420272Y-85830322D03*
X214594975Y-84005025D03*
%TO.N,Net-(Q1-G2)*%
X212100931Y-90000000D03*
X213800000Y-90800000D03*
%TD*%
D18*
%TO.N,GND*%
X218900000Y-87700000D02*
X220500000Y-87700000D01*
X218000000Y-89042463D02*
X218000000Y-88600000D01*
X217182537Y-89425000D02*
X217617463Y-89425000D01*
X217157537Y-89400000D02*
X217182537Y-89425000D01*
X216257537Y-89400000D02*
X217157537Y-89400000D01*
X217617463Y-89425000D02*
X218000000Y-89042463D01*
X214699639Y-87842102D02*
X216257537Y-89400000D01*
X214699639Y-87777496D02*
X214699639Y-87842102D01*
X218000000Y-88600000D02*
X218900000Y-87700000D01*
X220500000Y-85300000D02*
X219200000Y-84000000D01*
X220500000Y-87700000D02*
X220500000Y-85300000D01*
%TO.N,MULTI2*%
X221200000Y-83460000D02*
X219200000Y-81460000D01*
X221200000Y-88800000D02*
X221200000Y-83460000D01*
X217417195Y-90225344D02*
X219774656Y-90225344D01*
X216991851Y-89800000D02*
X217417195Y-90225344D01*
X216091852Y-89800000D02*
X216991851Y-89800000D01*
X198880635Y-88700000D02*
X214991852Y-88700000D01*
X219774656Y-90225344D02*
X221200000Y-88800000D01*
X198455635Y-88275000D02*
X198880635Y-88700000D01*
X192675000Y-88275000D02*
X198455635Y-88275000D01*
%TO.N,VCCCTL3*%
X216168630Y-90500000D02*
X216337363Y-90500000D01*
X214968630Y-89300000D02*
X216168630Y-90500000D01*
X198914950Y-89300000D02*
X214968630Y-89300000D01*
X198289950Y-88675000D02*
X198914950Y-89300000D01*
X197710050Y-88675000D02*
X198289950Y-88675000D01*
%TO.N,MULTI2*%
X191100500Y-86700500D02*
X192675000Y-88275000D01*
%TO.N,VCCCTL3*%
X197685050Y-88700000D02*
X197710050Y-88675000D01*
X188699500Y-85224217D02*
X192175283Y-88700000D01*
%TO.N,MULTI2*%
X191100500Y-85200500D02*
X191100500Y-86700500D01*
%TO.N,VCCCTL3*%
X192175283Y-88700000D02*
X197685050Y-88700000D01*
%TO.N,MULTI2*%
X214991852Y-88700000D02*
X216091852Y-89800000D01*
%TO.N,VCC003*%
X217400000Y-88900000D02*
X217200000Y-88700000D01*
X216300000Y-88700000D02*
X216000000Y-88400000D01*
%TO.N,MULTI2*%
X191100000Y-85200000D02*
X191100500Y-85200500D01*
%TO.N,VCC003*%
X217200000Y-88700000D02*
X216300000Y-88700000D01*
%TO.N,GND*%
X209100000Y-85400000D02*
X208561296Y-85400000D01*
%TO.N,SWPUD*%
X207150819Y-83000000D02*
X208416887Y-81733932D01*
X197417853Y-83000000D02*
X207150819Y-83000000D01*
X196180853Y-81763000D02*
X197417853Y-83000000D01*
X192918888Y-81763000D02*
X196180853Y-81763000D01*
X191478190Y-82463002D02*
X192218884Y-82463004D01*
X187380712Y-81219288D02*
X190234476Y-81219288D01*
X190234476Y-81219288D02*
X191478190Y-82463002D01*
X192218884Y-82463004D02*
X192918888Y-81763000D01*
X186392834Y-83617216D02*
X186392834Y-82207166D01*
X186392834Y-82207166D02*
X187380712Y-81219288D01*
%TO.N,VCCCTL5*%
X188000000Y-86115073D02*
X188363000Y-86478073D01*
X189037000Y-83263000D02*
X188000000Y-84300000D01*
X192567975Y-83263002D02*
X189037000Y-83263000D01*
X192730977Y-83100000D02*
X192567975Y-83263002D01*
X194069842Y-83099998D02*
X192730977Y-83100000D01*
X203816851Y-83975000D02*
X203691851Y-84100000D01*
X188000000Y-84300000D02*
X188000000Y-86115073D01*
X209623305Y-83975000D02*
X203816851Y-83975000D01*
X203691851Y-84100000D02*
X197386481Y-84100000D01*
X197386481Y-84100000D02*
X195849481Y-82563000D01*
X194606839Y-82563000D02*
X194069842Y-83099998D01*
X209788166Y-84139861D02*
X209623305Y-83975000D01*
X195849481Y-82563000D02*
X194606839Y-82563000D01*
%TO.N,SWIO*%
X190261966Y-83663000D02*
X189162483Y-84762483D01*
X192733662Y-83663001D02*
X190261966Y-83663000D01*
X192896663Y-83500000D02*
X192733662Y-83663001D01*
X194772524Y-82963000D02*
X194235528Y-83499997D01*
X195683795Y-82963000D02*
X194772524Y-82963000D01*
X197220796Y-84500000D02*
X195683795Y-82963000D01*
X203857538Y-84500000D02*
X197220796Y-84500000D01*
X203982538Y-84375000D02*
X203857538Y-84500000D01*
X209658355Y-85000000D02*
X209033355Y-84375000D01*
X213400000Y-85000000D02*
X209658355Y-85000000D01*
X216500000Y-88100000D02*
X213400000Y-85000000D01*
X194235528Y-83499997D02*
X192896663Y-83500000D01*
X217640000Y-88100000D02*
X216500000Y-88100000D01*
X219200000Y-86540000D02*
X217640000Y-88100000D01*
X209033355Y-84375000D02*
X203982538Y-84375000D01*
%TO.N,SWCL*%
X189600000Y-85057537D02*
X189600000Y-85200000D01*
X190594537Y-84063000D02*
X189600000Y-85057537D01*
X192899347Y-84063001D02*
X190594537Y-84063000D01*
X193062349Y-83900000D02*
X192899347Y-84063001D01*
X194938209Y-83363000D02*
X194401209Y-83900000D01*
X194401209Y-83900000D02*
X193062349Y-83900000D01*
X195518109Y-83363000D02*
X194938209Y-83363000D01*
X195928159Y-83828159D02*
X195928159Y-83773050D01*
X204200000Y-84900000D02*
X197000000Y-84900000D01*
X197000000Y-84900000D02*
X195928159Y-83828159D01*
X195928159Y-83773050D02*
X195518109Y-83363000D01*
%TO.N,SWPUC*%
X207700000Y-83500000D02*
X209600000Y-81600000D01*
X197352167Y-83500000D02*
X207700000Y-83500000D01*
X196015167Y-82163000D02*
X197352167Y-83500000D01*
X194441154Y-82163000D02*
X196015167Y-82163000D01*
X192565294Y-82700000D02*
X193904156Y-82699999D01*
X192402291Y-82863003D02*
X192565294Y-82700000D01*
X193904156Y-82699999D02*
X194441154Y-82163000D01*
X191149502Y-82699999D02*
X191312503Y-82863001D01*
X191312503Y-82863001D02*
X192402291Y-82863003D01*
X188187041Y-82700000D02*
X191149502Y-82699999D01*
X187998557Y-82888484D02*
X188187041Y-82700000D01*
%TO.N,ProgAct*%
X210321037Y-87725427D02*
X213300000Y-87725427D01*
X207770610Y-85175000D02*
X210321037Y-87725427D01*
X205890686Y-85175000D02*
X207770610Y-85175000D01*
X205457720Y-85607966D02*
X205890686Y-85175000D01*
X205457720Y-85808421D02*
X205457720Y-85607966D01*
X205047670Y-86218471D02*
X205457720Y-85808421D01*
X204467770Y-86218471D02*
X205047670Y-86218471D01*
X192000000Y-86100000D02*
X204349299Y-86100000D01*
X191800000Y-84872550D02*
X191800000Y-85900000D01*
X191602450Y-84675000D02*
X191800000Y-84872550D01*
X190589341Y-84675000D02*
X191602450Y-84675000D01*
X190200000Y-85064341D02*
X190589341Y-84675000D01*
X204349299Y-86100000D02*
X204467770Y-86218471D01*
X191800000Y-85900000D02*
X192000000Y-86100000D01*
X190200000Y-85200000D02*
X190200000Y-85064341D01*
%TO.N,GND*%
X204981529Y-85518471D02*
X204757720Y-85518471D01*
X205725000Y-84775000D02*
X204981529Y-85518471D01*
X207936296Y-84775000D02*
X205725000Y-84775000D01*
X208561296Y-85400000D02*
X207936296Y-84775000D01*
X212322143Y-85400000D02*
X209100000Y-85400000D01*
X214699639Y-87777496D02*
X212322143Y-85400000D01*
X217728944Y-86510476D02*
X217728944Y-86366358D01*
%TO.N,MULTI2*%
X191100500Y-85199500D02*
X191100000Y-85200000D01*
%TO.N,GND*%
X184980712Y-80819288D02*
X183600000Y-82200000D01*
X190949756Y-80819288D02*
X184980712Y-80819288D01*
X191893471Y-81763003D02*
X190949756Y-80819288D01*
%TO.N,VCCCTL3*%
X217000000Y-87400000D02*
X217272050Y-87400000D01*
X212739938Y-83139938D02*
X217000000Y-87400000D01*
X209800756Y-83139938D02*
X212739938Y-83139938D01*
%TO.N,VCCCTL5*%
X214594975Y-84005025D02*
X216420272Y-85830322D01*
%TO.N,GND*%
X192400000Y-86800000D02*
X192350000Y-86850000D01*
X196942604Y-86800000D02*
X192400000Y-86800000D01*
%TO.N,MULTI2*%
X191100500Y-85163000D02*
X191100500Y-85199500D01*
%TO.N,Net-(U1-LNA_IN)*%
X194339661Y-84951498D02*
X192524224Y-84951498D01*
X195228159Y-84063000D02*
X194339661Y-84951498D01*
%TO.N,GND*%
X186200000Y-84800000D02*
X185600000Y-84800000D01*
X187200000Y-83800000D02*
X186200000Y-84800000D01*
X188245924Y-81919288D02*
X187978510Y-81919288D01*
X187978510Y-81919288D02*
X187200000Y-82697798D01*
X187200000Y-82697798D02*
X187200000Y-83800000D01*
%TO.N,Net-(Q1-G2)*%
X213000000Y-90000000D02*
X212100931Y-90000000D01*
X213800000Y-90800000D02*
X213000000Y-90000000D01*
%TO.N,Net-(F1-Pad1)*%
X197574506Y-89800494D02*
X198000000Y-89375000D01*
X184790444Y-89800494D02*
X197574506Y-89800494D01*
X183989950Y-89000000D02*
X184790444Y-89800494D01*
X176000000Y-89000000D02*
X183989950Y-89000000D01*
%TO.N,VDD*%
X183045400Y-85818399D02*
X183045400Y-84354600D01*
X183045400Y-84354600D02*
X184400000Y-83000000D01*
X183739843Y-91650107D02*
X182300500Y-91650107D01*
X184989950Y-90400000D02*
X183739843Y-91650107D01*
X196774264Y-90400000D02*
X184989950Y-90400000D01*
X197300000Y-90925736D02*
X196774264Y-90400000D01*
X197300000Y-91200000D02*
X197300000Y-90925736D01*
X207600000Y-91400000D02*
X207800000Y-91600000D01*
X198082094Y-92000000D02*
X200310050Y-92000000D01*
X200310050Y-92000000D02*
X200910050Y-91400000D01*
X197300000Y-91217906D02*
X198082094Y-92000000D01*
X200910050Y-91400000D02*
X207600000Y-91400000D01*
X197300000Y-91200000D02*
X197300000Y-91217906D01*
%TO.N,Net-(J1-CC2)*%
X177200000Y-87286025D02*
X176401025Y-88085000D01*
X177200000Y-84600000D02*
X177200000Y-87286025D01*
%TO.N,VCC003*%
X216000000Y-84400000D02*
X216240000Y-84400000D01*
%TD*%
%TA.AperFunction,Conductor*%
%TO.N,GND*%
G36*
X222042539Y-79620185D02*
G01*
X222088294Y-79672989D01*
X222099500Y-79724500D01*
X222099500Y-93475500D01*
X222079815Y-93542539D01*
X222027011Y-93588294D01*
X221975500Y-93599500D01*
X216324500Y-93599500D01*
X216257461Y-93579815D01*
X216211706Y-93527011D01*
X216200500Y-93475500D01*
X216200500Y-92624759D01*
X216200528Y-92624616D01*
X216200524Y-92624616D01*
X216200539Y-92600002D01*
X216200541Y-92600000D01*
X216200453Y-92599786D01*
X216200384Y-92599618D01*
X216200382Y-92599616D01*
X216200099Y-92599500D01*
X216200001Y-92599459D01*
X216175963Y-92599416D01*
X216175492Y-92599509D01*
X208333756Y-92602590D01*
X208266709Y-92582932D01*
X208220933Y-92530146D01*
X208210962Y-92460991D01*
X208239962Y-92397424D01*
X208260822Y-92378272D01*
X208318740Y-92336192D01*
X208405871Y-92272888D01*
X208532533Y-92132216D01*
X208627179Y-91968284D01*
X208685674Y-91788256D01*
X208705460Y-91600000D01*
X208685674Y-91411744D01*
X208627179Y-91231716D01*
X208532533Y-91067784D01*
X208405871Y-90927112D01*
X208369243Y-90900500D01*
X208252734Y-90815851D01*
X208252729Y-90815848D01*
X208079807Y-90738857D01*
X208079802Y-90738855D01*
X207932076Y-90707456D01*
X207894646Y-90699500D01*
X207705354Y-90699500D01*
X207672897Y-90706398D01*
X207520197Y-90738855D01*
X207520192Y-90738857D01*
X207408069Y-90788779D01*
X207357633Y-90799500D01*
X200953478Y-90799500D01*
X200945379Y-90798969D01*
X200910050Y-90794318D01*
X200870689Y-90799500D01*
X200753289Y-90814955D01*
X200753287Y-90814956D01*
X200607207Y-90875464D01*
X200481769Y-90971716D01*
X200460069Y-90999994D01*
X200454718Y-91006096D01*
X200413190Y-91047623D01*
X200351867Y-91081108D01*
X200282175Y-91076124D01*
X200226242Y-91034252D01*
X200207579Y-90998261D01*
X200150144Y-90821492D01*
X200146885Y-90815848D01*
X200079712Y-90699500D01*
X200052870Y-90653008D01*
X199978945Y-90570906D01*
X199922697Y-90508435D01*
X199922694Y-90508433D01*
X199922693Y-90508432D01*
X199922692Y-90508431D01*
X199841885Y-90449721D01*
X199765297Y-90394076D01*
X199610213Y-90325030D01*
X199587571Y-90314949D01*
X199587569Y-90314948D01*
X199397274Y-90274500D01*
X199202726Y-90274500D01*
X199012430Y-90314948D01*
X199012427Y-90314949D01*
X198850434Y-90387072D01*
X198781184Y-90396356D01*
X198749566Y-90387072D01*
X198587572Y-90314949D01*
X198581391Y-90312941D01*
X198581956Y-90311200D01*
X198528281Y-90282216D01*
X198494510Y-90221049D01*
X198499169Y-90151335D01*
X198540779Y-90095207D01*
X198542667Y-90093808D01*
X198576142Y-90069487D01*
X198605871Y-90047888D01*
X198709447Y-89932855D01*
X198768933Y-89896207D01*
X198817778Y-89892889D01*
X198914950Y-89905682D01*
X198950279Y-89901030D01*
X198958378Y-89900500D01*
X211073363Y-89900500D01*
X211140402Y-89920185D01*
X211186157Y-89972989D01*
X211196683Y-90011535D01*
X211215257Y-90188256D01*
X211215258Y-90188259D01*
X211273749Y-90368277D01*
X211273752Y-90368284D01*
X211368398Y-90532216D01*
X211477160Y-90653008D01*
X211495060Y-90672888D01*
X211648196Y-90784148D01*
X211648201Y-90784151D01*
X211821123Y-90861142D01*
X211821128Y-90861144D01*
X212006285Y-90900500D01*
X212006286Y-90900500D01*
X212195575Y-90900500D01*
X212195577Y-90900500D01*
X212380734Y-90861144D01*
X212553661Y-90784151D01*
X212688805Y-90685962D01*
X212754606Y-90662485D01*
X212822660Y-90678310D01*
X212849367Y-90698602D01*
X212858221Y-90707456D01*
X212891706Y-90768779D01*
X212894540Y-90795137D01*
X212894540Y-90799997D01*
X212894540Y-90800000D01*
X212914326Y-90988256D01*
X212914327Y-90988259D01*
X212972818Y-91168277D01*
X212972821Y-91168284D01*
X213067467Y-91332216D01*
X213175047Y-91451695D01*
X213194129Y-91472888D01*
X213347265Y-91584148D01*
X213347270Y-91584151D01*
X213520192Y-91661142D01*
X213520197Y-91661144D01*
X213705354Y-91700500D01*
X213705355Y-91700500D01*
X213894644Y-91700500D01*
X213894646Y-91700500D01*
X214079803Y-91661144D01*
X214252730Y-91584151D01*
X214405871Y-91472888D01*
X214532533Y-91332216D01*
X214627179Y-91168284D01*
X214685674Y-90988256D01*
X214705460Y-90800000D01*
X214685674Y-90611744D01*
X214627179Y-90431716D01*
X214532533Y-90267784D01*
X214405871Y-90127112D01*
X214405867Y-90127109D01*
X214402713Y-90124817D01*
X214401329Y-90123022D01*
X214401042Y-90122764D01*
X214401089Y-90122711D01*
X214360047Y-90069487D01*
X214354069Y-89999873D01*
X214386676Y-89938079D01*
X214447515Y-89903722D01*
X214475599Y-89900500D01*
X214668533Y-89900500D01*
X214735572Y-89920185D01*
X214756214Y-89936819D01*
X215414066Y-90594671D01*
X215447551Y-90655994D01*
X215449705Y-90669387D01*
X215451688Y-90688249D01*
X215451690Y-90688260D01*
X215510181Y-90868277D01*
X215510184Y-90868284D01*
X215604830Y-91032216D01*
X215727340Y-91168277D01*
X215731492Y-91172888D01*
X215884628Y-91284148D01*
X215884633Y-91284151D01*
X216057555Y-91361142D01*
X216057560Y-91361144D01*
X216242717Y-91400500D01*
X216242718Y-91400500D01*
X216432007Y-91400500D01*
X216432009Y-91400500D01*
X216617166Y-91361144D01*
X216790093Y-91284151D01*
X216943234Y-91172888D01*
X217069896Y-91032216D01*
X217160954Y-90874497D01*
X217211520Y-90826283D01*
X217280127Y-90813059D01*
X217284470Y-90813552D01*
X217417195Y-90831026D01*
X217452524Y-90826374D01*
X217460623Y-90825844D01*
X217725500Y-90825844D01*
X217792539Y-90845529D01*
X217838294Y-90898333D01*
X217849500Y-90949844D01*
X217849500Y-92517870D01*
X217849501Y-92517876D01*
X217855908Y-92577483D01*
X217906202Y-92712328D01*
X217906206Y-92712335D01*
X217992452Y-92827544D01*
X217992455Y-92827547D01*
X218107664Y-92913793D01*
X218107671Y-92913797D01*
X218242517Y-92964091D01*
X218242516Y-92964091D01*
X218249444Y-92964835D01*
X218302127Y-92970500D01*
X220097872Y-92970499D01*
X220157483Y-92964091D01*
X220292331Y-92913796D01*
X220407546Y-92827546D01*
X220493796Y-92712331D01*
X220544091Y-92577483D01*
X220550500Y-92517873D01*
X220550499Y-90722128D01*
X220544686Y-90668053D01*
X220544091Y-90662516D01*
X220493797Y-90527670D01*
X220493794Y-90527666D01*
X220484452Y-90515186D01*
X220460035Y-90449721D01*
X220474887Y-90381449D01*
X220496035Y-90353198D01*
X221593922Y-89255311D01*
X221599999Y-89249983D01*
X221628282Y-89228282D01*
X221724536Y-89102841D01*
X221785044Y-88956762D01*
X221800500Y-88839361D01*
X221805682Y-88800000D01*
X221801030Y-88764669D01*
X221800500Y-88756571D01*
X221800500Y-83503428D01*
X221801031Y-83495326D01*
X221803996Y-83472809D01*
X221805682Y-83460000D01*
X221803239Y-83441446D01*
X221788848Y-83332131D01*
X221785044Y-83303238D01*
X221754790Y-83230198D01*
X221724538Y-83157163D01*
X221724535Y-83157158D01*
X221714347Y-83143881D01*
X221695840Y-83119762D01*
X221628282Y-83031718D01*
X221600005Y-83010020D01*
X221593904Y-83004669D01*
X220532766Y-81943531D01*
X220499281Y-81882208D01*
X220500672Y-81823757D01*
X220505475Y-81805833D01*
X220535063Y-81695408D01*
X220555659Y-81460000D01*
X220535063Y-81224592D01*
X220473903Y-80996337D01*
X220374035Y-80782171D01*
X220365155Y-80769488D01*
X220238494Y-80588597D01*
X220071402Y-80421506D01*
X220071395Y-80421501D01*
X219877834Y-80285967D01*
X219877830Y-80285965D01*
X219877828Y-80285964D01*
X219663663Y-80186097D01*
X219663659Y-80186096D01*
X219663655Y-80186094D01*
X219435413Y-80124938D01*
X219435403Y-80124936D01*
X219200001Y-80104341D01*
X219199999Y-80104341D01*
X218964596Y-80124936D01*
X218964586Y-80124938D01*
X218736344Y-80186094D01*
X218736335Y-80186098D01*
X218522171Y-80285964D01*
X218522169Y-80285965D01*
X218328597Y-80421505D01*
X218161505Y-80588597D01*
X218025965Y-80782169D01*
X218025964Y-80782171D01*
X217926098Y-80996335D01*
X217926094Y-80996344D01*
X217864938Y-81224586D01*
X217864936Y-81224596D01*
X217844341Y-81459999D01*
X217844341Y-81460000D01*
X217864936Y-81695403D01*
X217864938Y-81695413D01*
X217926094Y-81923655D01*
X217926096Y-81923659D01*
X217926097Y-81923663D01*
X217988305Y-82057068D01*
X218025965Y-82137830D01*
X218025967Y-82137834D01*
X218105704Y-82251709D01*
X218158918Y-82327707D01*
X218161501Y-82331395D01*
X218161506Y-82331402D01*
X218328597Y-82498493D01*
X218328603Y-82498498D01*
X218379671Y-82534256D01*
X218495559Y-82615402D01*
X218514594Y-82628730D01*
X218558219Y-82683307D01*
X218565413Y-82752805D01*
X218533890Y-82815160D01*
X218514595Y-82831880D01*
X218328922Y-82961890D01*
X218328920Y-82961891D01*
X218161891Y-83128920D01*
X218161886Y-83128926D01*
X218026400Y-83322420D01*
X218026399Y-83322422D01*
X217926570Y-83536507D01*
X217926567Y-83536513D01*
X217869364Y-83749999D01*
X217869364Y-83750000D01*
X218766314Y-83750000D01*
X218740507Y-83790156D01*
X218700000Y-83928111D01*
X218700000Y-84071889D01*
X218740507Y-84209844D01*
X218766314Y-84250000D01*
X217869364Y-84250000D01*
X217926567Y-84463486D01*
X217926570Y-84463492D01*
X218026399Y-84677578D01*
X218161894Y-84871082D01*
X218328917Y-85038105D01*
X218514595Y-85168119D01*
X218558219Y-85222696D01*
X218565412Y-85292195D01*
X218533890Y-85354549D01*
X218514595Y-85371269D01*
X218328594Y-85501508D01*
X218161505Y-85668597D01*
X218025965Y-85862169D01*
X218025964Y-85862171D01*
X217926098Y-86076335D01*
X217926094Y-86076344D01*
X217864938Y-86304586D01*
X217864936Y-86304596D01*
X217848622Y-86491062D01*
X217823169Y-86556131D01*
X217766578Y-86597109D01*
X217696816Y-86600987D01*
X217674658Y-86593533D01*
X217551856Y-86538857D01*
X217551852Y-86538855D01*
X217384150Y-86503210D01*
X217366696Y-86499500D01*
X217288504Y-86499500D01*
X217221465Y-86479815D01*
X217175710Y-86427011D01*
X217165766Y-86357853D01*
X217181117Y-86313500D01*
X217186260Y-86304592D01*
X217247451Y-86198606D01*
X217305946Y-86018578D01*
X217325732Y-85830322D01*
X217305946Y-85642066D01*
X217247451Y-85462038D01*
X217152805Y-85298106D01*
X217026143Y-85157434D01*
X217026142Y-85157433D01*
X216873006Y-85046173D01*
X216873004Y-85046172D01*
X216834726Y-85029129D01*
X216781489Y-84983878D01*
X216761169Y-84917028D01*
X216777774Y-84853855D01*
X216827179Y-84768284D01*
X216885674Y-84588256D01*
X216905460Y-84400000D01*
X216885674Y-84211744D01*
X216827179Y-84031716D01*
X216732533Y-83867784D01*
X216605871Y-83727112D01*
X216605870Y-83727111D01*
X216452734Y-83615851D01*
X216452729Y-83615848D01*
X216279807Y-83538857D01*
X216279802Y-83538855D01*
X216134001Y-83507865D01*
X216094646Y-83499500D01*
X215905354Y-83499500D01*
X215886874Y-83503428D01*
X215720197Y-83538855D01*
X215720192Y-83538857D01*
X215541334Y-83618492D01*
X215540248Y-83616053D01*
X215483830Y-83629720D01*
X215417811Y-83606845D01*
X215382388Y-83567864D01*
X215327508Y-83472809D01*
X215200846Y-83332137D01*
X215195419Y-83328194D01*
X215047709Y-83220876D01*
X215047704Y-83220873D01*
X214874782Y-83143882D01*
X214874777Y-83143880D01*
X214691827Y-83104994D01*
X214689621Y-83104525D01*
X214500329Y-83104525D01*
X214498123Y-83104994D01*
X214315172Y-83143880D01*
X214315167Y-83143882D01*
X214142245Y-83220873D01*
X214142240Y-83220876D01*
X213989110Y-83332131D01*
X213989100Y-83332140D01*
X213978111Y-83344344D01*
X213918623Y-83380990D01*
X213848766Y-83379657D01*
X213798284Y-83349049D01*
X213500112Y-83050877D01*
X213195258Y-82746023D01*
X213189918Y-82739933D01*
X213168220Y-82711656D01*
X213042779Y-82615402D01*
X212896700Y-82554894D01*
X212896698Y-82554893D01*
X212808156Y-82543237D01*
X212739939Y-82534256D01*
X212739938Y-82534256D01*
X212704608Y-82538907D01*
X212696510Y-82539438D01*
X210527014Y-82539438D01*
X210459975Y-82519753D01*
X210434865Y-82498411D01*
X210406627Y-82467050D01*
X210406620Y-82467044D01*
X210290992Y-82383036D01*
X210248326Y-82327707D01*
X210242347Y-82258093D01*
X210271726Y-82199748D01*
X210332533Y-82132216D01*
X210427179Y-81968284D01*
X210485674Y-81788256D01*
X210505460Y-81600000D01*
X210485674Y-81411744D01*
X210427179Y-81231716D01*
X210332533Y-81067784D01*
X210205871Y-80927112D01*
X210189835Y-80915461D01*
X210065076Y-80824818D01*
X210022410Y-80769488D01*
X210016431Y-80699875D01*
X210049037Y-80638080D01*
X210109876Y-80603722D01*
X210137961Y-80600500D01*
X216175240Y-80600500D01*
X216175383Y-80600528D01*
X216175384Y-80600524D01*
X216199997Y-80600539D01*
X216200000Y-80600541D01*
X216200383Y-80600383D01*
X216200500Y-80600099D01*
X216200541Y-80600000D01*
X216200540Y-80599997D01*
X216200583Y-80575889D01*
X216200500Y-80575467D01*
X216200500Y-79724500D01*
X216220185Y-79657461D01*
X216272989Y-79611706D01*
X216324500Y-79600500D01*
X221975500Y-79600500D01*
X222042539Y-79620185D01*
G37*
%TD.AperFunction*%
%TA.AperFunction,Conductor*%
G36*
X186914202Y-80620185D02*
G01*
X186959957Y-80672989D01*
X186969901Y-80742147D01*
X186945534Y-80799993D01*
X186930733Y-80819279D01*
X186925382Y-80825380D01*
X185998930Y-81751834D01*
X185992828Y-81757185D01*
X185964550Y-81778884D01*
X185905297Y-81856107D01*
X185902188Y-81860159D01*
X185880965Y-81887818D01*
X185868296Y-81904328D01*
X185868295Y-81904329D01*
X185807791Y-82050400D01*
X185807789Y-82050405D01*
X185787804Y-82202212D01*
X185787152Y-82207166D01*
X185788295Y-82215851D01*
X185791803Y-82242492D01*
X185792334Y-82250594D01*
X185792334Y-82890763D01*
X185772649Y-82957802D01*
X185760484Y-82973735D01*
X185660300Y-83085001D01*
X185565655Y-83248931D01*
X185565652Y-83248938D01*
X185510147Y-83419767D01*
X185507160Y-83428960D01*
X185487374Y-83617216D01*
X185507160Y-83805472D01*
X185507161Y-83805475D01*
X185565652Y-83985493D01*
X185565655Y-83985500D01*
X185660301Y-84149432D01*
X185740763Y-84238794D01*
X185786963Y-84290104D01*
X185940099Y-84401364D01*
X185940104Y-84401367D01*
X186113026Y-84478358D01*
X186113031Y-84478360D01*
X186298188Y-84517716D01*
X186298189Y-84517716D01*
X186487478Y-84517716D01*
X186487480Y-84517716D01*
X186672637Y-84478360D01*
X186845564Y-84401367D01*
X186998705Y-84290104D01*
X187125367Y-84149432D01*
X187195225Y-84028434D01*
X187245790Y-83980220D01*
X187247810Y-83979830D01*
X187244540Y-83911176D01*
X187247114Y-83902092D01*
X187248032Y-83899268D01*
X187278508Y-83805472D01*
X187287994Y-83715213D01*
X187314577Y-83650602D01*
X187371874Y-83610617D01*
X187441693Y-83607957D01*
X187484197Y-83627859D01*
X187515501Y-83650602D01*
X187545827Y-83672635D01*
X187548500Y-83674178D01*
X187549738Y-83675476D01*
X187551085Y-83676455D01*
X187550906Y-83676701D01*
X187596718Y-83724743D01*
X187609944Y-83793350D01*
X187583979Y-83858216D01*
X187574186Y-83869249D01*
X187571718Y-83871716D01*
X187499495Y-83965841D01*
X187475461Y-83997162D01*
X187472432Y-84002410D01*
X187421865Y-84050625D01*
X187419845Y-84051014D01*
X187423116Y-84119668D01*
X187417173Y-84137885D01*
X187414957Y-84143234D01*
X187414955Y-84143239D01*
X187394318Y-84299998D01*
X187394318Y-84299999D01*
X187398969Y-84335326D01*
X187399500Y-84343428D01*
X187399500Y-86071644D01*
X187398969Y-86079742D01*
X187394318Y-86115073D01*
X187397117Y-86136337D01*
X187399500Y-86154433D01*
X187414955Y-86271833D01*
X187414956Y-86271835D01*
X187463732Y-86389592D01*
X187475464Y-86417914D01*
X187571718Y-86543355D01*
X187599995Y-86565053D01*
X187606085Y-86570393D01*
X187653913Y-86618221D01*
X187700868Y-86665176D01*
X187734353Y-86726499D01*
X187736282Y-86737906D01*
X187739310Y-86762840D01*
X187797483Y-86916228D01*
X187876055Y-87030059D01*
X187890668Y-87051229D01*
X187890670Y-87051231D01*
X187890672Y-87051233D01*
X188013451Y-87160006D01*
X188013452Y-87160006D01*
X188013454Y-87160008D01*
X188158705Y-87236242D01*
X188158707Y-87236242D01*
X188158708Y-87236243D01*
X188317978Y-87275500D01*
X188317979Y-87275500D01*
X188482022Y-87275500D01*
X188641291Y-87236243D01*
X188641291Y-87236242D01*
X188641295Y-87236242D01*
X188786546Y-87160008D01*
X188909332Y-87051229D01*
X189002518Y-86916226D01*
X189060688Y-86762845D01*
X189065527Y-86722990D01*
X189093148Y-86658813D01*
X189151082Y-86619756D01*
X189220935Y-86618221D01*
X189276303Y-86650255D01*
X190472765Y-87846718D01*
X191614360Y-88988313D01*
X191647845Y-89049636D01*
X191642861Y-89119328D01*
X191600989Y-89175261D01*
X191535525Y-89199678D01*
X191526679Y-89199994D01*
X185090542Y-89199994D01*
X185023503Y-89180309D01*
X185002861Y-89163675D01*
X184888822Y-89049636D01*
X184445270Y-88606085D01*
X184439930Y-88599995D01*
X184418232Y-88571718D01*
X184292791Y-88475464D01*
X184274252Y-88467785D01*
X184146712Y-88414956D01*
X184146710Y-88414955D01*
X184054689Y-88402841D01*
X183989951Y-88394318D01*
X183989950Y-88394318D01*
X183954620Y-88398969D01*
X183946522Y-88399500D01*
X177411146Y-88399500D01*
X177344107Y-88379815D01*
X177298352Y-88327011D01*
X177287825Y-88262539D01*
X177290300Y-88238998D01*
X177306485Y-88085000D01*
X177306485Y-88084997D01*
X177306485Y-88080136D01*
X177326170Y-88013097D01*
X177342804Y-87992455D01*
X177464808Y-87870451D01*
X177593914Y-87741344D01*
X177599999Y-87736008D01*
X177628282Y-87714307D01*
X177724536Y-87588866D01*
X177785044Y-87442787D01*
X177790677Y-87400000D01*
X177803730Y-87300851D01*
X177805682Y-87286026D01*
X177805682Y-87286024D01*
X177801031Y-87250698D01*
X177800500Y-87242596D01*
X177800500Y-85818399D01*
X182139940Y-85818399D01*
X182159726Y-86006655D01*
X182159727Y-86006658D01*
X182218218Y-86186676D01*
X182218221Y-86186683D01*
X182312867Y-86350615D01*
X182387140Y-86433103D01*
X182439529Y-86491287D01*
X182592665Y-86602547D01*
X182592670Y-86602550D01*
X182765592Y-86679541D01*
X182765597Y-86679543D01*
X182950754Y-86718899D01*
X182950755Y-86718899D01*
X183140044Y-86718899D01*
X183140046Y-86718899D01*
X183311906Y-86682369D01*
X183381571Y-86687685D01*
X183437305Y-86729822D01*
X183461213Y-86792849D01*
X183464936Y-86835404D01*
X183464938Y-86835413D01*
X183526094Y-87063655D01*
X183526096Y-87063659D01*
X183526097Y-87063663D01*
X183545486Y-87105242D01*
X183625964Y-87277828D01*
X183625965Y-87277830D01*
X183761505Y-87471402D01*
X183928597Y-87638494D01*
X184122169Y-87774034D01*
X184122171Y-87774035D01*
X184336337Y-87873903D01*
X184336343Y-87873904D01*
X184336344Y-87873905D01*
X184363171Y-87881093D01*
X184564592Y-87935063D01*
X184741034Y-87950500D01*
X184858966Y-87950500D01*
X185035408Y-87935063D01*
X185263663Y-87873903D01*
X185477829Y-87774035D01*
X185671401Y-87638495D01*
X185838495Y-87471401D01*
X185974035Y-87277830D01*
X186073903Y-87063663D01*
X186135063Y-86835408D01*
X186155659Y-86600000D01*
X186135063Y-86364592D01*
X186087391Y-86186676D01*
X186073905Y-86136344D01*
X186073904Y-86136343D01*
X186073903Y-86136337D01*
X185974035Y-85922171D01*
X185968054Y-85913628D01*
X185838494Y-85728597D01*
X185671402Y-85561505D01*
X185477830Y-85425965D01*
X185477828Y-85425964D01*
X185360534Y-85371269D01*
X185263663Y-85326097D01*
X185263659Y-85326096D01*
X185263655Y-85326094D01*
X185035413Y-85264938D01*
X185035403Y-85264936D01*
X184858966Y-85249500D01*
X184741034Y-85249500D01*
X184564596Y-85264936D01*
X184564586Y-85264938D01*
X184336344Y-85326094D01*
X184336335Y-85326098D01*
X184122171Y-85425964D01*
X184122169Y-85425965D01*
X184045352Y-85479753D01*
X183979145Y-85502080D01*
X183911378Y-85485069D01*
X183866842Y-85440178D01*
X183851706Y-85413962D01*
X183777933Y-85286183D01*
X183704779Y-85204937D01*
X183677750Y-85174918D01*
X183647520Y-85111926D01*
X183645900Y-85091946D01*
X183645900Y-84654697D01*
X183665585Y-84587658D01*
X183682219Y-84567016D01*
X184312416Y-83936819D01*
X184373739Y-83903334D01*
X184400097Y-83900500D01*
X184494644Y-83900500D01*
X184494646Y-83900500D01*
X184679803Y-83861144D01*
X184852730Y-83784151D01*
X185005871Y-83672888D01*
X185132533Y-83532216D01*
X185227179Y-83368284D01*
X185285674Y-83188256D01*
X185305460Y-83000000D01*
X185285674Y-82811744D01*
X185231112Y-82643823D01*
X185227181Y-82631722D01*
X185227180Y-82631721D01*
X185227179Y-82631716D01*
X185132533Y-82467784D01*
X185005871Y-82327112D01*
X185005732Y-82327011D01*
X184852734Y-82215851D01*
X184852729Y-82215848D01*
X184679807Y-82138857D01*
X184679802Y-82138855D01*
X184534001Y-82107865D01*
X184494646Y-82099500D01*
X184305354Y-82099500D01*
X184272897Y-82106398D01*
X184120197Y-82138855D01*
X184120192Y-82138857D01*
X183947270Y-82215848D01*
X183947265Y-82215851D01*
X183794129Y-82327111D01*
X183667466Y-82467785D01*
X183572821Y-82631715D01*
X183572818Y-82631722D01*
X183519746Y-82795063D01*
X183514326Y-82811744D01*
X183494540Y-83000000D01*
X183494540Y-83000002D01*
X183494540Y-83004862D01*
X183474855Y-83071901D01*
X183458221Y-83092543D01*
X182651496Y-83899268D01*
X182645394Y-83904619D01*
X182617116Y-83926319D01*
X182529552Y-84040436D01*
X182520863Y-84051759D01*
X182520861Y-84051763D01*
X182460357Y-84197834D01*
X182460355Y-84197839D01*
X182439718Y-84354598D01*
X182439718Y-84354600D01*
X182444369Y-84389926D01*
X182444900Y-84398027D01*
X182444900Y-85091946D01*
X182425215Y-85158985D01*
X182413050Y-85174918D01*
X182312866Y-85286184D01*
X182218221Y-85450114D01*
X182218218Y-85450121D01*
X182159727Y-85630139D01*
X182159726Y-85630143D01*
X182139940Y-85818399D01*
X177800500Y-85818399D01*
X177800500Y-85326452D01*
X177820185Y-85259413D01*
X177832350Y-85243480D01*
X177851064Y-85222696D01*
X177932533Y-85132216D01*
X178027179Y-84968284D01*
X178085674Y-84788256D01*
X178105460Y-84600000D01*
X178085674Y-84411744D01*
X178027179Y-84231716D01*
X177932533Y-84067784D01*
X177805871Y-83927112D01*
X177804780Y-83926319D01*
X177652734Y-83815851D01*
X177652729Y-83815848D01*
X177479807Y-83738857D01*
X177479802Y-83738855D01*
X177334001Y-83707865D01*
X177294646Y-83699500D01*
X177105354Y-83699500D01*
X177072897Y-83706398D01*
X176920197Y-83738855D01*
X176920192Y-83738857D01*
X176747270Y-83815848D01*
X176747265Y-83815851D01*
X176594129Y-83927111D01*
X176467466Y-84067785D01*
X176372821Y-84231715D01*
X176372818Y-84231722D01*
X176314327Y-84411740D01*
X176314326Y-84411744D01*
X176294540Y-84600000D01*
X176314326Y-84788256D01*
X176314327Y-84788259D01*
X176372818Y-84968277D01*
X176372821Y-84968284D01*
X176467467Y-85132216D01*
X176543110Y-85216226D01*
X176567650Y-85243480D01*
X176597880Y-85306471D01*
X176599500Y-85326452D01*
X176599500Y-86985928D01*
X176579815Y-87052967D01*
X176563181Y-87073609D01*
X176488609Y-87148181D01*
X176427286Y-87181666D01*
X176400928Y-87184500D01*
X176306379Y-87184500D01*
X176273922Y-87191398D01*
X176121222Y-87223855D01*
X176121217Y-87223857D01*
X175948295Y-87300848D01*
X175948290Y-87300851D01*
X175795154Y-87412111D01*
X175668491Y-87552785D01*
X175573846Y-87716715D01*
X175573843Y-87716722D01*
X175522420Y-87874988D01*
X175515351Y-87896744D01*
X175500136Y-88041506D01*
X175495565Y-88085000D01*
X175504526Y-88170268D01*
X175491956Y-88238998D01*
X175454092Y-88283545D01*
X175394128Y-88327112D01*
X175394123Y-88327116D01*
X175267466Y-88467785D01*
X175172821Y-88631715D01*
X175172818Y-88631722D01*
X175130931Y-88760638D01*
X175114326Y-88811744D01*
X175094540Y-89000000D01*
X175114326Y-89188256D01*
X175114327Y-89188259D01*
X175172818Y-89368277D01*
X175172821Y-89368284D01*
X175267467Y-89532216D01*
X175394128Y-89672887D01*
X175394129Y-89672888D01*
X175547265Y-89784148D01*
X175547270Y-89784151D01*
X175720192Y-89861142D01*
X175720197Y-89861144D01*
X175905354Y-89900500D01*
X175905355Y-89900500D01*
X176094644Y-89900500D01*
X176094646Y-89900500D01*
X176279803Y-89861144D01*
X176452730Y-89784151D01*
X176605871Y-89672888D01*
X176634109Y-89641527D01*
X176693595Y-89604879D01*
X176726258Y-89600500D01*
X183689853Y-89600500D01*
X183756892Y-89620185D01*
X183777533Y-89636818D01*
X184253034Y-90112319D01*
X184286518Y-90173641D01*
X184281534Y-90243333D01*
X184253033Y-90287680D01*
X183527427Y-91013288D01*
X183466104Y-91046773D01*
X183439746Y-91049607D01*
X183026758Y-91049607D01*
X182959719Y-91029922D01*
X182934609Y-91008580D01*
X182906371Y-90977219D01*
X182906364Y-90977213D01*
X182753234Y-90865958D01*
X182753229Y-90865955D01*
X182580307Y-90788964D01*
X182580302Y-90788962D01*
X182434501Y-90757972D01*
X182395146Y-90749607D01*
X182205854Y-90749607D01*
X182173397Y-90756505D01*
X182020697Y-90788962D01*
X182020692Y-90788964D01*
X181847770Y-90865955D01*
X181847765Y-90865958D01*
X181694629Y-90977218D01*
X181567966Y-91117892D01*
X181473321Y-91281822D01*
X181473318Y-91281829D01*
X181418126Y-91451695D01*
X181414826Y-91461851D01*
X181395040Y-91650107D01*
X181414826Y-91838363D01*
X181414827Y-91838366D01*
X181473318Y-92018384D01*
X181473321Y-92018391D01*
X181567967Y-92182323D01*
X181676769Y-92303159D01*
X181694629Y-92322995D01*
X181785105Y-92388730D01*
X181827771Y-92444060D01*
X181833750Y-92513673D01*
X181801144Y-92575468D01*
X181740305Y-92609826D01*
X181712269Y-92613048D01*
X168783597Y-92618127D01*
X168779148Y-92617969D01*
X168711668Y-92613142D01*
X168549764Y-92600395D01*
X168541441Y-92599168D01*
X168441840Y-92577501D01*
X168315559Y-92547181D01*
X168308360Y-92544983D01*
X168235704Y-92517883D01*
X168206501Y-92506990D01*
X168091971Y-92459548D01*
X168085987Y-92456685D01*
X167989388Y-92403937D01*
X167986707Y-92402385D01*
X167947358Y-92378272D01*
X167883946Y-92339412D01*
X167879221Y-92336206D01*
X167790257Y-92269608D01*
X167787181Y-92267147D01*
X167696191Y-92189434D01*
X167692628Y-92186141D01*
X167613856Y-92107369D01*
X167610564Y-92103807D01*
X167594049Y-92084471D01*
X167532846Y-92012811D01*
X167530397Y-92009750D01*
X167463786Y-91920769D01*
X167460593Y-91916063D01*
X167397605Y-91813278D01*
X167396061Y-91810610D01*
X167343313Y-91714011D01*
X167340457Y-91708044D01*
X167293009Y-91593497D01*
X167255008Y-91491618D01*
X167252817Y-91484439D01*
X167247393Y-91461847D01*
X167222500Y-91358165D01*
X167200829Y-91258553D01*
X167199603Y-91250234D01*
X167193440Y-91171946D01*
X167193287Y-91170000D01*
X168564134Y-91170000D01*
X168564431Y-91171946D01*
X168564433Y-91171952D01*
X168635062Y-91362657D01*
X168635065Y-91362664D01*
X168742649Y-91535267D01*
X168882764Y-91682668D01*
X168882766Y-91682669D01*
X169049695Y-91798856D01*
X169236592Y-91879059D01*
X169435810Y-91920000D01*
X169687500Y-91920000D01*
X169687500Y-91220000D01*
X170187500Y-91220000D01*
X170187500Y-91920000D01*
X170388213Y-91920000D01*
X170539838Y-91904581D01*
X170733881Y-91843700D01*
X170733891Y-91843695D01*
X170911715Y-91744994D01*
X170911716Y-91744994D01*
X171066030Y-91612521D01*
X171066031Y-91612520D01*
X171190518Y-91451695D01*
X171280088Y-91269093D01*
X171305746Y-91170000D01*
X172564134Y-91170000D01*
X172564431Y-91171946D01*
X172564433Y-91171952D01*
X172635062Y-91362657D01*
X172635065Y-91362664D01*
X172742649Y-91535267D01*
X172882764Y-91682668D01*
X172882766Y-91682669D01*
X173049695Y-91798856D01*
X173236592Y-91879059D01*
X173435810Y-91920000D01*
X173837500Y-91920000D01*
X173837500Y-91220000D01*
X174337500Y-91220000D01*
X174337500Y-91920000D01*
X174688213Y-91920000D01*
X174839838Y-91904581D01*
X175033881Y-91843700D01*
X175033891Y-91843695D01*
X175211715Y-91744994D01*
X175211716Y-91744994D01*
X175366030Y-91612521D01*
X175366031Y-91612520D01*
X175490518Y-91451695D01*
X175580088Y-91269093D01*
X175605746Y-91170000D01*
X174803611Y-91170000D01*
X174843110Y-91145543D01*
X174910701Y-91056038D01*
X174941395Y-90948160D01*
X174931046Y-90836479D01*
X174881052Y-90736078D01*
X174808569Y-90670000D01*
X175610866Y-90670000D01*
X175610568Y-90668053D01*
X175610566Y-90668047D01*
X175539937Y-90477342D01*
X175539934Y-90477335D01*
X175432350Y-90304732D01*
X175292235Y-90157331D01*
X175292233Y-90157330D01*
X175125304Y-90041143D01*
X174938407Y-89960940D01*
X174739190Y-89920000D01*
X174217884Y-89920000D01*
X174150845Y-89900315D01*
X174105090Y-89847511D01*
X174095146Y-89778353D01*
X174103323Y-89748547D01*
X174109216Y-89734319D01*
X174148187Y-89640236D01*
X174167966Y-89490000D01*
X174164017Y-89460008D01*
X174148187Y-89339765D01*
X174148187Y-89339764D01*
X174090198Y-89199767D01*
X173997951Y-89079549D01*
X173877733Y-88987302D01*
X173877729Y-88987300D01*
X173804003Y-88956762D01*
X173737736Y-88929313D01*
X173723671Y-88927461D01*
X173625227Y-88914500D01*
X173625220Y-88914500D01*
X173549780Y-88914500D01*
X173549772Y-88914500D01*
X173437264Y-88929313D01*
X173437263Y-88929313D01*
X173297270Y-88987300D01*
X173297267Y-88987301D01*
X173297267Y-88987302D01*
X173177049Y-89079549D01*
X173084871Y-89199678D01*
X173084800Y-89199770D01*
X173026813Y-89339763D01*
X173026812Y-89339765D01*
X173007034Y-89489999D01*
X173007034Y-89490000D01*
X173026812Y-89640234D01*
X173026813Y-89640236D01*
X173084800Y-89780230D01*
X173084802Y-89780233D01*
X173130339Y-89839578D01*
X173155533Y-89904747D01*
X173141495Y-89973192D01*
X173092681Y-90023181D01*
X173092141Y-90023483D01*
X172963284Y-90095004D01*
X172963283Y-90095005D01*
X172808969Y-90227478D01*
X172808968Y-90227479D01*
X172684481Y-90388304D01*
X172594911Y-90570906D01*
X172569254Y-90670000D01*
X173371389Y-90670000D01*
X173331890Y-90694457D01*
X173264299Y-90783962D01*
X173233605Y-90891840D01*
X173243954Y-91003521D01*
X173293948Y-91103922D01*
X173366431Y-91170000D01*
X172564134Y-91170000D01*
X171305746Y-91170000D01*
X170503611Y-91170000D01*
X170543110Y-91145543D01*
X170610701Y-91056038D01*
X170641395Y-90948160D01*
X170631046Y-90836479D01*
X170581052Y-90736078D01*
X170508569Y-90670000D01*
X171310866Y-90670000D01*
X171310568Y-90668053D01*
X171310566Y-90668047D01*
X171239937Y-90477342D01*
X171239934Y-90477335D01*
X171132350Y-90304732D01*
X170992235Y-90157331D01*
X170992233Y-90157330D01*
X170825304Y-90041143D01*
X170638407Y-89960940D01*
X170439190Y-89920000D01*
X170187500Y-89920000D01*
X170187500Y-90620000D01*
X169687500Y-90620000D01*
X169687500Y-89920000D01*
X169486787Y-89920000D01*
X169335161Y-89935418D01*
X169141118Y-89996299D01*
X169141108Y-89996304D01*
X168963284Y-90095005D01*
X168963283Y-90095005D01*
X168808969Y-90227478D01*
X168808968Y-90227479D01*
X168684481Y-90388304D01*
X168594911Y-90570906D01*
X168569254Y-90670000D01*
X169371389Y-90670000D01*
X169331890Y-90694457D01*
X169264299Y-90783962D01*
X169233605Y-90891840D01*
X169243954Y-91003521D01*
X169293948Y-91103922D01*
X169366431Y-91170000D01*
X168564134Y-91170000D01*
X167193287Y-91170000D01*
X167186851Y-91088249D01*
X167182032Y-91020880D01*
X167181875Y-91016373D01*
X167199802Y-82530000D01*
X168564134Y-82530000D01*
X168564431Y-82531946D01*
X168564433Y-82531952D01*
X168635062Y-82722657D01*
X168635065Y-82722664D01*
X168742649Y-82895267D01*
X168882764Y-83042668D01*
X168882766Y-83042669D01*
X169049695Y-83158856D01*
X169236592Y-83239059D01*
X169435810Y-83280000D01*
X169687500Y-83280000D01*
X169687500Y-82580000D01*
X170187500Y-82580000D01*
X170187500Y-83280000D01*
X170388213Y-83280000D01*
X170539838Y-83264581D01*
X170733881Y-83203700D01*
X170733891Y-83203695D01*
X170911715Y-83104994D01*
X170911716Y-83104994D01*
X171066030Y-82972521D01*
X171066031Y-82972520D01*
X171190518Y-82811695D01*
X171280088Y-82629093D01*
X171305746Y-82530000D01*
X172564134Y-82530000D01*
X172564431Y-82531946D01*
X172564433Y-82531952D01*
X172635062Y-82722657D01*
X172635065Y-82722664D01*
X172742649Y-82895267D01*
X172882764Y-83042668D01*
X172882766Y-83042669D01*
X173049695Y-83158856D01*
X173080143Y-83171922D01*
X173133986Y-83216448D01*
X173155210Y-83283017D01*
X173137075Y-83350492D01*
X173129620Y-83361358D01*
X173084801Y-83419767D01*
X173084800Y-83419769D01*
X173026813Y-83559763D01*
X173026812Y-83559765D01*
X173007034Y-83709999D01*
X173007034Y-83710000D01*
X173026812Y-83860234D01*
X173026813Y-83860236D01*
X173083528Y-83997159D01*
X173084802Y-84000233D01*
X173177049Y-84120451D01*
X173297267Y-84212698D01*
X173437264Y-84270687D01*
X173549780Y-84285500D01*
X173549787Y-84285500D01*
X173625213Y-84285500D01*
X173625220Y-84285500D01*
X173737736Y-84270687D01*
X173877733Y-84212698D01*
X173997951Y-84120451D01*
X174090198Y-84000233D01*
X174148187Y-83860236D01*
X174167966Y-83710000D01*
X174167799Y-83708735D01*
X174148187Y-83559765D01*
X174148187Y-83559764D01*
X174103323Y-83451453D01*
X174095854Y-83381983D01*
X174127129Y-83319504D01*
X174187218Y-83283852D01*
X174217884Y-83280000D01*
X174688213Y-83280000D01*
X174839838Y-83264581D01*
X175033881Y-83203700D01*
X175033891Y-83203695D01*
X175211715Y-83104994D01*
X175211716Y-83104994D01*
X175366030Y-82972521D01*
X175366031Y-82972520D01*
X175490518Y-82811695D01*
X175580088Y-82629093D01*
X175605746Y-82530000D01*
X174803611Y-82530000D01*
X174843110Y-82505543D01*
X174910701Y-82416038D01*
X174941395Y-82308160D01*
X174931046Y-82196479D01*
X174881052Y-82096078D01*
X174808569Y-82030000D01*
X175610866Y-82030000D01*
X175610568Y-82028053D01*
X175610566Y-82028047D01*
X175539937Y-81837342D01*
X175539934Y-81837335D01*
X175432350Y-81664732D01*
X175292235Y-81517331D01*
X175292233Y-81517330D01*
X175125304Y-81401143D01*
X174938407Y-81320940D01*
X174739190Y-81280000D01*
X174337500Y-81280000D01*
X174337500Y-81980000D01*
X173837500Y-81980000D01*
X173837500Y-81280000D01*
X173486787Y-81280000D01*
X173335161Y-81295418D01*
X173141118Y-81356299D01*
X173141108Y-81356304D01*
X172963284Y-81455005D01*
X172963283Y-81455005D01*
X172808969Y-81587478D01*
X172808968Y-81587479D01*
X172684481Y-81748304D01*
X172594911Y-81930906D01*
X172569254Y-82030000D01*
X173371389Y-82030000D01*
X173331890Y-82054457D01*
X173264299Y-82143962D01*
X173233605Y-82251840D01*
X173243954Y-82363521D01*
X173293948Y-82463922D01*
X173366431Y-82530000D01*
X172564134Y-82530000D01*
X171305746Y-82530000D01*
X170503611Y-82530000D01*
X170543110Y-82505543D01*
X170610701Y-82416038D01*
X170641395Y-82308160D01*
X170631046Y-82196479D01*
X170581052Y-82096078D01*
X170508569Y-82030000D01*
X171310866Y-82030000D01*
X171310568Y-82028053D01*
X171310566Y-82028047D01*
X171239937Y-81837342D01*
X171239934Y-81837335D01*
X171132350Y-81664732D01*
X170992235Y-81517331D01*
X170992233Y-81517330D01*
X170825304Y-81401143D01*
X170638407Y-81320940D01*
X170439190Y-81280000D01*
X170187500Y-81280000D01*
X170187500Y-81980000D01*
X169687500Y-81980000D01*
X169687500Y-81280000D01*
X169486787Y-81280000D01*
X169335161Y-81295418D01*
X169141118Y-81356299D01*
X169141108Y-81356304D01*
X168963284Y-81455005D01*
X168963283Y-81455005D01*
X168808969Y-81587478D01*
X168808968Y-81587479D01*
X168684481Y-81748304D01*
X168594911Y-81930906D01*
X168569254Y-82030000D01*
X169371389Y-82030000D01*
X169331890Y-82054457D01*
X169264299Y-82143962D01*
X169233605Y-82251840D01*
X169243954Y-82363521D01*
X169293948Y-82463922D01*
X169366431Y-82530000D01*
X168564134Y-82530000D01*
X167199802Y-82530000D01*
X167200390Y-82251706D01*
X167200500Y-82251337D01*
X167200500Y-82202212D01*
X167200658Y-82197788D01*
X167205481Y-82130362D01*
X167211249Y-82057068D01*
X167218229Y-81968379D01*
X167219452Y-81960084D01*
X167241126Y-81860451D01*
X167271444Y-81734171D01*
X167273629Y-81727012D01*
X167311626Y-81625139D01*
X167359087Y-81510558D01*
X167361923Y-81504631D01*
X167414715Y-81407948D01*
X167416174Y-81405428D01*
X167479211Y-81302562D01*
X167482412Y-81297845D01*
X167549028Y-81208856D01*
X167551476Y-81205797D01*
X167629196Y-81114798D01*
X167632456Y-81111272D01*
X167711272Y-81032456D01*
X167714798Y-81029196D01*
X167805797Y-80951476D01*
X167808856Y-80949028D01*
X167897845Y-80882412D01*
X167902562Y-80879211D01*
X168005428Y-80816174D01*
X168007948Y-80814715D01*
X168104631Y-80761923D01*
X168110558Y-80759087D01*
X168225121Y-80711633D01*
X168327012Y-80673629D01*
X168334171Y-80671444D01*
X168460451Y-80641126D01*
X168560084Y-80619452D01*
X168568379Y-80618229D01*
X168696802Y-80608121D01*
X168730362Y-80605481D01*
X168775583Y-80602246D01*
X168797792Y-80600657D01*
X168802213Y-80600500D01*
X186847163Y-80600500D01*
X186914202Y-80620185D01*
G37*
%TD.AperFunction*%
%TA.AperFunction,Conductor*%
G36*
X196119760Y-91019760D02*
G01*
X196064505Y-91102455D01*
X196045102Y-91200000D01*
X196064505Y-91297545D01*
X196119760Y-91380240D01*
X196202455Y-91435495D01*
X196275376Y-91450000D01*
X196324624Y-91450000D01*
X196397545Y-91435495D01*
X196402346Y-91432287D01*
X196449856Y-91578510D01*
X196449857Y-91578511D01*
X196533387Y-91723189D01*
X196550000Y-91785189D01*
X196550000Y-92125000D01*
X196772828Y-92125000D01*
X196772844Y-92124999D01*
X196832372Y-92118598D01*
X196832383Y-92118595D01*
X196923874Y-92084471D01*
X196993565Y-92079486D01*
X197006068Y-92083585D01*
X197006245Y-92083042D01*
X197012429Y-92085051D01*
X197202726Y-92125500D01*
X197306997Y-92125500D01*
X197374036Y-92145185D01*
X197394678Y-92161819D01*
X197626762Y-92393903D01*
X197632111Y-92400001D01*
X197637741Y-92407338D01*
X197662939Y-92472504D01*
X197648906Y-92540950D01*
X197600095Y-92590943D01*
X197539419Y-92606830D01*
X182889465Y-92612585D01*
X182822418Y-92592927D01*
X182776642Y-92540141D01*
X182766671Y-92470986D01*
X182795671Y-92407419D01*
X182816528Y-92388268D01*
X182888207Y-92336192D01*
X182906366Y-92322999D01*
X182906367Y-92322997D01*
X182906371Y-92322995D01*
X182934609Y-92291634D01*
X182994095Y-92254986D01*
X183026758Y-92250607D01*
X183696415Y-92250607D01*
X183704513Y-92251137D01*
X183739843Y-92255789D01*
X183739844Y-92255789D01*
X183792097Y-92248909D01*
X183896605Y-92235151D01*
X184042684Y-92174643D01*
X184097976Y-92132216D01*
X184168125Y-92078389D01*
X184189827Y-92050105D01*
X184195153Y-92044030D01*
X184789184Y-91450000D01*
X195375000Y-91450000D01*
X195375000Y-91672844D01*
X195381401Y-91732372D01*
X195381403Y-91732379D01*
X195431645Y-91867086D01*
X195431649Y-91867093D01*
X195517809Y-91982187D01*
X195517812Y-91982190D01*
X195632906Y-92068350D01*
X195632913Y-92068354D01*
X195767620Y-92118596D01*
X195767627Y-92118598D01*
X195827155Y-92124999D01*
X195827172Y-92125000D01*
X196050000Y-92125000D01*
X196050000Y-91450000D01*
X195375000Y-91450000D01*
X184789184Y-91450000D01*
X185202366Y-91036819D01*
X185263689Y-91003334D01*
X185290047Y-91000500D01*
X196148585Y-91000500D01*
X196119760Y-91019760D01*
G37*
%TD.AperFunction*%
%TA.AperFunction,Conductor*%
G36*
X206986868Y-92020185D02*
G01*
X207027216Y-92062500D01*
X207067466Y-92132214D01*
X207067465Y-92132214D01*
X207194129Y-92272888D01*
X207339754Y-92378691D01*
X207382420Y-92434021D01*
X207388399Y-92503634D01*
X207355793Y-92565429D01*
X207294955Y-92599786D01*
X207266918Y-92603009D01*
X200853820Y-92605528D01*
X200786773Y-92585870D01*
X200740997Y-92533084D01*
X200731026Y-92463929D01*
X200755394Y-92406045D01*
X200760037Y-92399993D01*
X200765369Y-92393914D01*
X201122466Y-92036819D01*
X201183789Y-92003334D01*
X201210147Y-92000500D01*
X206919829Y-92000500D01*
X206986868Y-92020185D01*
G37*
%TD.AperFunction*%
%TA.AperFunction,Conductor*%
G36*
X220560355Y-87198691D02*
G01*
X220595769Y-87258921D01*
X220599500Y-87289110D01*
X220599500Y-88330890D01*
X220579815Y-88397929D01*
X220527011Y-88443684D01*
X220457853Y-88453628D01*
X220394297Y-88424603D01*
X220373925Y-88402013D01*
X220238494Y-88208597D01*
X220071402Y-88041506D01*
X220071396Y-88041501D01*
X219885842Y-87911575D01*
X219842217Y-87856998D01*
X219835023Y-87787500D01*
X219866546Y-87725145D01*
X219885842Y-87708425D01*
X219941692Y-87669318D01*
X220071401Y-87578495D01*
X220238495Y-87411401D01*
X220373925Y-87217986D01*
X220428502Y-87174362D01*
X220498000Y-87167168D01*
X220560355Y-87198691D01*
G37*
%TD.AperFunction*%
%TA.AperFunction,Conductor*%
G36*
X208800297Y-84995185D02*
G01*
X208820938Y-85011818D01*
X209014056Y-85204937D01*
X209203027Y-85393908D01*
X209208380Y-85400011D01*
X209227198Y-85424536D01*
X209230073Y-85428282D01*
X209259946Y-85451204D01*
X209260264Y-85451448D01*
X209260282Y-85451463D01*
X209355512Y-85524535D01*
X209355513Y-85524535D01*
X209355514Y-85524536D01*
X209501593Y-85585044D01*
X209579974Y-85595363D01*
X209658354Y-85605682D01*
X209658355Y-85605682D01*
X209693684Y-85601030D01*
X209701783Y-85600500D01*
X213099903Y-85600500D01*
X213166942Y-85620185D01*
X213187584Y-85636819D01*
X215421216Y-87870451D01*
X215454701Y-87931774D01*
X215449717Y-88001466D01*
X215435585Y-88028572D01*
X215397480Y-88083776D01*
X215393996Y-88090415D01*
X215391958Y-88089345D01*
X215356603Y-88136025D01*
X215291003Y-88160074D01*
X215235400Y-88150903D01*
X215148617Y-88114957D01*
X215148612Y-88114955D01*
X215031213Y-88099500D01*
X214991852Y-88094318D01*
X214956522Y-88098969D01*
X214948424Y-88099500D01*
X214295970Y-88099500D01*
X214228931Y-88079815D01*
X214183176Y-88027011D01*
X214173232Y-87957853D01*
X214178039Y-87937183D01*
X214181740Y-87925788D01*
X214185674Y-87913683D01*
X214205460Y-87725427D01*
X214185674Y-87537171D01*
X214127179Y-87357143D01*
X214032533Y-87193211D01*
X213905871Y-87052539D01*
X213905863Y-87052533D01*
X213752734Y-86941278D01*
X213752729Y-86941275D01*
X213579807Y-86864284D01*
X213579802Y-86864282D01*
X213434001Y-86833292D01*
X213394646Y-86824927D01*
X213205354Y-86824927D01*
X213172897Y-86831825D01*
X213020197Y-86864282D01*
X213020192Y-86864284D01*
X212847270Y-86941275D01*
X212847265Y-86941278D01*
X212694135Y-87052533D01*
X212694128Y-87052539D01*
X212665891Y-87083900D01*
X212606405Y-87120548D01*
X212573742Y-87124927D01*
X210621135Y-87124927D01*
X210554096Y-87105242D01*
X210533454Y-87088608D01*
X209599279Y-86154433D01*
X208632025Y-85187180D01*
X208598541Y-85125858D01*
X208603525Y-85056166D01*
X208645397Y-85000233D01*
X208710861Y-84975816D01*
X208719707Y-84975500D01*
X208733258Y-84975500D01*
X208800297Y-84995185D01*
G37*
%TD.AperFunction*%
%TA.AperFunction,Conductor*%
G36*
X204134480Y-86720185D02*
G01*
X204142915Y-86726115D01*
X204164929Y-86743007D01*
X204311008Y-86803515D01*
X204389389Y-86813834D01*
X204467769Y-86824153D01*
X204467770Y-86824153D01*
X204503099Y-86819501D01*
X204511198Y-86818971D01*
X205004242Y-86818971D01*
X205012340Y-86819501D01*
X205047670Y-86824153D01*
X205047671Y-86824153D01*
X205099924Y-86817273D01*
X205204432Y-86803515D01*
X205267557Y-86777367D01*
X205337023Y-86769898D01*
X205399502Y-86801172D01*
X205434783Y-86859835D01*
X205496094Y-87088655D01*
X205496096Y-87088659D01*
X205496097Y-87088663D01*
X205539465Y-87181666D01*
X205595964Y-87302828D01*
X205595965Y-87302830D01*
X205731505Y-87496402D01*
X205898597Y-87663494D01*
X206092169Y-87799034D01*
X206092171Y-87799035D01*
X206229597Y-87863118D01*
X206282036Y-87909290D01*
X206301188Y-87976484D01*
X206280972Y-88043365D01*
X206227807Y-88088699D01*
X206177192Y-88099500D01*
X199180732Y-88099500D01*
X199113693Y-88079815D01*
X199093051Y-88063181D01*
X198910963Y-87881093D01*
X198905609Y-87874988D01*
X198883921Y-87846722D01*
X198883918Y-87846720D01*
X198883917Y-87846718D01*
X198758476Y-87750464D01*
X198729534Y-87738476D01*
X198612397Y-87689956D01*
X198612395Y-87689955D01*
X198494996Y-87674500D01*
X198455635Y-87669318D01*
X198420305Y-87673969D01*
X198412207Y-87674500D01*
X192975097Y-87674500D01*
X192908058Y-87654815D01*
X192887416Y-87638181D01*
X192161416Y-86912181D01*
X192127931Y-86850858D01*
X192132915Y-86781166D01*
X192174787Y-86725233D01*
X192240251Y-86700816D01*
X192249097Y-86700500D01*
X204067441Y-86700500D01*
X204134480Y-86720185D01*
G37*
%TD.AperFunction*%
%TA.AperFunction,Conductor*%
G36*
X220560356Y-84657819D02*
G01*
X220595769Y-84718049D01*
X220599500Y-84748238D01*
X220599500Y-85790890D01*
X220579815Y-85857929D01*
X220527011Y-85903684D01*
X220457853Y-85913628D01*
X220394297Y-85884603D01*
X220373925Y-85862013D01*
X220238494Y-85668597D01*
X220071402Y-85501506D01*
X220071401Y-85501505D01*
X219885405Y-85371269D01*
X219841781Y-85316692D01*
X219834588Y-85247193D01*
X219866110Y-85184839D01*
X219885405Y-85168119D01*
X220071082Y-85038105D01*
X220238105Y-84871082D01*
X220373925Y-84677114D01*
X220428503Y-84633489D01*
X220498001Y-84626297D01*
X220560356Y-84657819D01*
G37*
%TD.AperFunction*%
%TA.AperFunction,Conductor*%
G36*
X212506880Y-83760123D02*
G01*
X212527522Y-83776757D01*
X212938584Y-84187819D01*
X212972069Y-84249142D01*
X212967085Y-84318834D01*
X212925213Y-84374767D01*
X212859749Y-84399184D01*
X212850903Y-84399500D01*
X210804053Y-84399500D01*
X210737014Y-84379815D01*
X210691259Y-84327011D01*
X210680732Y-84262539D01*
X210683971Y-84231722D01*
X210693626Y-84139861D01*
X210673840Y-83951605D01*
X210657968Y-83902756D01*
X210655973Y-83832915D01*
X210692053Y-83773082D01*
X210754754Y-83742254D01*
X210775899Y-83740438D01*
X212439841Y-83740438D01*
X212506880Y-83760123D01*
G37*
%TD.AperFunction*%
%TA.AperFunction,Conductor*%
G36*
X190001418Y-81839473D02*
G01*
X190022060Y-81856107D01*
X190053771Y-81887818D01*
X190087256Y-81949141D01*
X190082272Y-82018833D01*
X190040400Y-82074766D01*
X189974936Y-82099183D01*
X189966090Y-82099499D01*
X188466789Y-82099499D01*
X188416354Y-82088779D01*
X188345130Y-82057068D01*
X188291892Y-82011817D01*
X188271571Y-81944968D01*
X188290616Y-81877745D01*
X188342982Y-81831489D01*
X188395565Y-81819788D01*
X189934379Y-81819788D01*
X190001418Y-81839473D01*
G37*
%TD.AperFunction*%
%TA.AperFunction,Conductor*%
G36*
X195343039Y-80620185D02*
G01*
X195388794Y-80672989D01*
X195400000Y-80724500D01*
X195400000Y-81038500D01*
X195380315Y-81105539D01*
X195327511Y-81151294D01*
X195276000Y-81162500D01*
X192962316Y-81162500D01*
X192954217Y-81161969D01*
X192918888Y-81157318D01*
X192879527Y-81162500D01*
X192762127Y-81177955D01*
X192762125Y-81177956D01*
X192616045Y-81238464D01*
X192490607Y-81334716D01*
X192468907Y-81362994D01*
X192463556Y-81369096D01*
X192006468Y-81826183D01*
X191945145Y-81859668D01*
X191918787Y-81862502D01*
X191778287Y-81862502D01*
X191711248Y-81842817D01*
X191690606Y-81826183D01*
X190689805Y-80825382D01*
X190684452Y-80819279D01*
X190669647Y-80799985D01*
X190644454Y-80734819D01*
X190658492Y-80666374D01*
X190707305Y-80616383D01*
X190768024Y-80600500D01*
X195276000Y-80600500D01*
X195343039Y-80620185D01*
G37*
%TD.AperFunction*%
%TD*%
M02*
