%TF.GenerationSoftware,KiCad,Pcbnew,7.0.8*%
%TF.CreationDate,2024-02-27T09:09:56-06:00*%
%TF.ProjectId,CH32VClamp,43483332-5643-46c6-916d-702e6b696361,rev?*%
%TF.SameCoordinates,Original*%
%TF.FileFunction,Soldermask,Top*%
%TF.FilePolarity,Negative*%
%FSLAX46Y46*%
G04 Gerber Fmt 4.6, Leading zero omitted, Abs format (unit mm)*
G04 Created by KiCad (PCBNEW 7.0.8) date 2024-02-27 09:09:56*
%MOMM*%
%LPD*%
G01*
G04 APERTURE LIST*
G04 Aperture macros list*
%AMRoundRect*
0 Rectangle with rounded corners*
0 $1 Rounding radius*
0 $2 $3 $4 $5 $6 $7 $8 $9 X,Y pos of 4 corners*
0 Add a 4 corners polygon primitive as box body*
4,1,4,$2,$3,$4,$5,$6,$7,$8,$9,$2,$3,0*
0 Add four circle primitives for the rounded corners*
1,1,$1+$1,$2,$3*
1,1,$1+$1,$4,$5*
1,1,$1+$1,$6,$7*
1,1,$1+$1,$8,$9*
0 Add four rect primitives between the rounded corners*
20,1,$1+$1,$2,$3,$4,$5,0*
20,1,$1+$1,$4,$5,$6,$7,0*
20,1,$1+$1,$6,$7,$8,$9,0*
20,1,$1+$1,$8,$9,$2,$3,0*%
G04 Aperture macros list end*
%ADD10RoundRect,0.225000X0.225000X0.250000X-0.225000X0.250000X-0.225000X-0.250000X0.225000X-0.250000X0*%
%ADD11RoundRect,0.150000X0.150000X-0.587500X0.150000X0.587500X-0.150000X0.587500X-0.150000X-0.587500X0*%
%ADD12RoundRect,0.218750X-0.218750X-0.256250X0.218750X-0.256250X0.218750X0.256250X-0.218750X0.256250X0*%
%ADD13R,1.700000X1.700000*%
%ADD14O,1.700000X1.700000*%
%ADD15RoundRect,0.250000X0.250000X0.475000X-0.250000X0.475000X-0.250000X-0.475000X0.250000X-0.475000X0*%
%ADD16R,0.850000X0.850000*%
%ADD17O,0.850000X0.850000*%
%ADD18RoundRect,0.250000X-0.475000X0.250000X-0.475000X-0.250000X0.475000X-0.250000X0.475000X0.250000X0*%
%ADD19C,2.200000*%
%ADD20R,0.700000X0.640000*%
%ADD21R,0.700000X0.500000*%
%ADD22R,1.000000X0.500000*%
%ADD23R,1.500000X0.800000*%
%ADD24C,0.650000*%
%ADD25R,1.400000X0.250000*%
%ADD26O,2.100000X1.000000*%
%ADD27O,1.800000X1.000000*%
%ADD28RoundRect,0.250000X-0.312500X-0.625000X0.312500X-0.625000X0.312500X0.625000X-0.312500X0.625000X0*%
%ADD29RoundRect,0.075000X0.175000X-0.075000X0.175000X0.075000X-0.175000X0.075000X-0.175000X-0.075000X0*%
%ADD30RoundRect,0.150000X0.350000X-0.150000X0.350000X0.150000X-0.350000X0.150000X-0.350000X-0.150000X0*%
%ADD31RoundRect,0.050000X-0.050000X0.387500X-0.050000X-0.387500X0.050000X-0.387500X0.050000X0.387500X0*%
%ADD32RoundRect,0.050000X-0.387500X0.050000X-0.387500X-0.050000X0.387500X-0.050000X0.387500X0.050000X0*%
%ADD33R,3.200000X3.200000*%
%ADD34R,0.800000X0.500000*%
%ADD35RoundRect,0.225000X0.250000X-0.225000X0.250000X0.225000X-0.250000X0.225000X-0.250000X-0.225000X0*%
%ADD36R,0.640000X0.700000*%
%ADD37R,0.500000X0.700000*%
%ADD38RoundRect,0.225000X-0.250000X0.225000X-0.250000X-0.225000X0.250000X-0.225000X0.250000X0.225000X0*%
%ADD39RoundRect,0.147500X-0.172500X0.147500X-0.172500X-0.147500X0.172500X-0.147500X0.172500X0.147500X0*%
%ADD40R,0.900000X0.800000*%
%ADD41RoundRect,0.250000X0.475000X-0.250000X0.475000X0.250000X-0.475000X0.250000X-0.475000X-0.250000X0*%
%ADD42RoundRect,0.200000X-0.200000X-0.275000X0.200000X-0.275000X0.200000X0.275000X-0.200000X0.275000X0*%
G04 APERTURE END LIST*
D10*
%TO.C,C8*%
X194337500Y-82000000D03*
X192787500Y-82000000D03*
%TD*%
D11*
%TO.C,U2*%
X204850000Y-91200000D03*
X206750000Y-91200000D03*
X205800000Y-89325000D03*
%TD*%
D12*
%TO.C,F1*%
X199012500Y-89200000D03*
X200587500Y-89200000D03*
%TD*%
D13*
%TO.C,J4*%
X219200000Y-91620000D03*
D14*
X219200000Y-89080000D03*
X219200000Y-86540000D03*
X219200000Y-84000000D03*
X219200000Y-81460000D03*
%TD*%
D15*
%TO.C,C1*%
X198187500Y-82600000D03*
X196287500Y-82600000D03*
%TD*%
D16*
%TO.C,J2*%
X196300000Y-91200000D03*
D17*
X197300000Y-91200000D03*
X198300000Y-91200000D03*
X199300000Y-91200000D03*
%TD*%
D10*
%TO.C,C10*%
X190537500Y-82000000D03*
X188987500Y-82000000D03*
%TD*%
D18*
%TO.C,C6*%
X202600000Y-89250000D03*
X202600000Y-91150000D03*
%TD*%
D19*
%TO.C,*%
X184800000Y-86600000D03*
%TD*%
D20*
%TO.C,RN4*%
X210650000Y-86800000D03*
D21*
X210650000Y-87670000D03*
X210650000Y-88470000D03*
D20*
X210650000Y-89340000D03*
X212050000Y-89340000D03*
D21*
X212050000Y-88470000D03*
X212050000Y-87670000D03*
D20*
X212050000Y-86800000D03*
%TD*%
D12*
%TO.C,D1*%
X207025000Y-84000000D03*
X208600000Y-84000000D03*
%TD*%
D20*
%TO.C,RN2*%
X210650000Y-81660000D03*
D21*
X210650000Y-82530000D03*
X210650000Y-83330000D03*
D20*
X210650000Y-84200000D03*
X212050000Y-84200000D03*
D21*
X212050000Y-83330000D03*
X212050000Y-82530000D03*
D20*
X212050000Y-81660000D03*
%TD*%
D22*
%TO.C,SW2*%
X180400000Y-87400000D03*
X180400000Y-84200000D03*
D23*
X182150000Y-86800000D03*
X178650000Y-86800000D03*
X182150000Y-84800000D03*
X178650000Y-84800000D03*
%TD*%
D24*
%TO.C,J1*%
X173587500Y-83710000D03*
X173587500Y-89490000D03*
D25*
X174787500Y-83275000D03*
X174787500Y-84075000D03*
X174787500Y-85350000D03*
X174787500Y-86350000D03*
X174787500Y-86850000D03*
X174787500Y-84850000D03*
X174787500Y-89125000D03*
X174787500Y-89925000D03*
X174787500Y-89675000D03*
X174787500Y-88875000D03*
X174787500Y-88350000D03*
X174787500Y-87350000D03*
X174787500Y-85850000D03*
X174787500Y-87850000D03*
X174787500Y-84325000D03*
X174787500Y-83525000D03*
D26*
X174087500Y-82280000D03*
D27*
X169937500Y-82280000D03*
D26*
X174087500Y-90920000D03*
D27*
X169937500Y-90920000D03*
%TD*%
D28*
%TO.C,A1*%
X201837500Y-82000000D03*
X204762500Y-82000000D03*
%TD*%
D19*
%TO.C,*%
X206770000Y-86625000D03*
%TD*%
D29*
%TO.C,Q2*%
X215400000Y-86950000D03*
X215400000Y-86300000D03*
X215400000Y-85650000D03*
X213300000Y-85650000D03*
X213300000Y-86300000D03*
X213300000Y-86950000D03*
D30*
X214350000Y-86750000D03*
X214350000Y-85850000D03*
%TD*%
D31*
%TO.C,U1*%
X193162500Y-83925000D03*
X192762500Y-83925000D03*
X192362500Y-83925000D03*
X191962500Y-83925000D03*
X191562500Y-83925000D03*
X191162500Y-83925000D03*
X190762500Y-83925000D03*
X190362500Y-83925000D03*
X189962500Y-83925000D03*
X189562500Y-83925000D03*
X189162500Y-83925000D03*
X188762500Y-83925000D03*
X188362500Y-83925000D03*
X187962500Y-83925000D03*
D32*
X187125000Y-84762500D03*
X187125000Y-85162500D03*
X187125000Y-85562500D03*
X187125000Y-85962500D03*
X187125000Y-86362500D03*
X187125000Y-86762500D03*
X187125000Y-87162500D03*
X187125000Y-87562500D03*
X187125000Y-87962500D03*
X187125000Y-88362500D03*
X187125000Y-88762500D03*
X187125000Y-89162500D03*
X187125000Y-89562500D03*
X187125000Y-89962500D03*
D31*
X187962500Y-90800000D03*
X188362500Y-90800000D03*
X188762500Y-90800000D03*
X189162500Y-90800000D03*
X189562500Y-90800000D03*
X189962500Y-90800000D03*
X190362500Y-90800000D03*
X190762500Y-90800000D03*
X191162500Y-90800000D03*
X191562500Y-90800000D03*
X191962500Y-90800000D03*
X192362500Y-90800000D03*
X192762500Y-90800000D03*
X193162500Y-90800000D03*
D32*
X194000000Y-89962500D03*
X194000000Y-89562500D03*
X194000000Y-89162500D03*
X194000000Y-88762500D03*
X194000000Y-88362500D03*
X194000000Y-87962500D03*
X194000000Y-87562500D03*
X194000000Y-87162500D03*
X194000000Y-86762500D03*
X194000000Y-86362500D03*
X194000000Y-85962500D03*
X194000000Y-85562500D03*
X194000000Y-85162500D03*
X194000000Y-84762500D03*
D33*
X190562500Y-87362500D03*
%TD*%
D34*
%TO.C,RN3*%
X181400000Y-88500000D03*
X181400000Y-89500000D03*
X183200000Y-89500000D03*
X183200000Y-88500000D03*
%TD*%
D35*
%TO.C,C3*%
X203362500Y-86950000D03*
X203362500Y-85400000D03*
%TD*%
D36*
%TO.C,RN1*%
X180940000Y-81600000D03*
D37*
X180070000Y-81600000D03*
X179270000Y-81600000D03*
D36*
X178400000Y-81600000D03*
X178400000Y-83000000D03*
D37*
X179270000Y-83000000D03*
X180070000Y-83000000D03*
D36*
X180940000Y-83000000D03*
%TD*%
D38*
%TO.C,C7*%
X195962500Y-85000000D03*
X195962500Y-86550000D03*
%TD*%
D39*
%TO.C,L1*%
X200037500Y-82230000D03*
X200037500Y-83200000D03*
%TD*%
D40*
%TO.C,Y1*%
X201500000Y-85050000D03*
X200100000Y-85050000D03*
X200100000Y-86150000D03*
X201500000Y-86150000D03*
%TD*%
D29*
%TO.C,Q1*%
X215450000Y-90200000D03*
X215450000Y-89550000D03*
X215450000Y-88900000D03*
X213350000Y-88900000D03*
X213350000Y-89550000D03*
X213350000Y-90200000D03*
D30*
X214400000Y-90000000D03*
X214400000Y-89100000D03*
%TD*%
D41*
%TO.C,C2*%
X208800000Y-91150000D03*
X208800000Y-89250000D03*
%TD*%
D38*
%TO.C,C5*%
X198162500Y-85025000D03*
X198162500Y-86575000D03*
%TD*%
D15*
%TO.C,C4*%
X185300000Y-91400000D03*
X183400000Y-91400000D03*
%TD*%
D42*
%TO.C,R5*%
X185312500Y-82000000D03*
X186962500Y-82000000D03*
%TD*%
D15*
%TO.C,C9*%
X181550000Y-91400000D03*
X179650000Y-91400000D03*
%TD*%
M02*
