%TF.GenerationSoftware,KiCad,Pcbnew,7.0.8*%
%TF.CreationDate,2024-02-13T10:47:56-06:00*%
%TF.ProjectId,SerialClamp,53657269-616c-4436-9c61-6d702e6b6963,rev?*%
%TF.SameCoordinates,Original*%
%TF.FileFunction,Copper,L2,Bot*%
%TF.FilePolarity,Positive*%
%FSLAX46Y46*%
G04 Gerber Fmt 4.6, Leading zero omitted, Abs format (unit mm)*
G04 Created by KiCad (PCBNEW 7.0.8) date 2024-02-13 10:47:56*
%MOMM*%
%LPD*%
G01*
G04 APERTURE LIST*
%TA.AperFunction,ComponentPad*%
%ADD10R,1.700000X1.700000*%
%TD*%
%TA.AperFunction,ComponentPad*%
%ADD11O,1.700000X1.700000*%
%TD*%
%TA.AperFunction,ComponentPad*%
%ADD12O,1.800000X1.000000*%
%TD*%
%TA.AperFunction,ComponentPad*%
%ADD13O,2.100000X1.000000*%
%TD*%
%TA.AperFunction,ViaPad*%
%ADD14C,0.800000*%
%TD*%
%TA.AperFunction,Conductor*%
%ADD15C,0.250000*%
%TD*%
%TA.AperFunction,Conductor*%
%ADD16C,0.200000*%
%TD*%
G04 APERTURE END LIST*
D10*
%TO.P,J2,1,Pin_1*%
%TO.N,VCC*%
X173070000Y-90950000D03*
D11*
%TO.P,J2,2,Pin_2*%
%TO.N,TX*%
X173070000Y-93490000D03*
%TO.P,J2,3,Pin_3*%
%TO.N,RX*%
X173070000Y-96030000D03*
%TO.P,J2,4,Pin_4*%
%TO.N,VSS*%
X173070000Y-98570000D03*
%TO.P,J2,5,Pin_5*%
%TO.N,Reset*%
X173070000Y-101110000D03*
%TD*%
D12*
%TO.P,J1,S1,SHIELD*%
%TO.N,VSS*%
X121947500Y-100345000D03*
D13*
X126097500Y-100345000D03*
D12*
X121947500Y-91705000D03*
D13*
X126097500Y-91705000D03*
%TD*%
D14*
%TO.N,VSS*%
X159000000Y-100200000D03*
X147400000Y-96800000D03*
X152400000Y-96600000D03*
X121600000Y-97800000D03*
X121600000Y-93800000D03*
X136400000Y-90800000D03*
X135000000Y-98800000D03*
X129800000Y-98800000D03*
X131000000Y-95000000D03*
X129000000Y-92000000D03*
%TO.N,Net-(F1-Pad1)*%
X128350000Y-98400000D03*
X129300000Y-94450000D03*
%TO.N,Reset*%
X128200000Y-97200000D03*
%TO.N,RX*%
X139787335Y-97187359D03*
X153600000Y-91200000D03*
%TO.N,TX*%
X140786716Y-97202904D03*
X153000000Y-92200000D03*
X158200000Y-91800000D03*
%TO.N,Net-(U1-V3)*%
X131997996Y-96575000D03*
X132763790Y-98218105D03*
%TO.N,D+*%
X125400000Y-97200000D03*
X125400000Y-95800000D03*
%TO.N,Net-(SW1-B)*%
X150800000Y-98400000D03*
X143030851Y-94830851D03*
%TD*%
D15*
%TO.N,RX*%
X156400000Y-91200000D02*
X153600000Y-91200000D01*
X173070000Y-96030000D02*
X171430000Y-96030000D01*
X171430000Y-96030000D02*
X168000000Y-92600000D01*
%TO.N,TX*%
X171380000Y-91800000D02*
X158200000Y-91800000D01*
%TO.N,RX*%
X168000000Y-92600000D02*
X157800000Y-92600000D01*
%TO.N,TX*%
X173070000Y-93490000D02*
X171380000Y-91800000D01*
%TO.N,RX*%
X157800000Y-92600000D02*
X156400000Y-91200000D01*
%TO.N,VSS*%
X129000000Y-92000000D02*
X130000000Y-92000000D01*
%TO.N,Net-(F1-Pad1)*%
X128350000Y-98400000D02*
X129300000Y-97450000D01*
%TO.N,Reset*%
X127625000Y-97775000D02*
X128200000Y-97200000D01*
X127625000Y-98700305D02*
X127625000Y-97775000D01*
X130034695Y-101110000D02*
X127625000Y-98700305D01*
%TO.N,Net-(F1-Pad1)*%
X129300000Y-97450000D02*
X129300000Y-94450000D01*
%TO.N,Reset*%
X173070000Y-101110000D02*
X130034695Y-101110000D01*
%TO.N,Net-(U1-V3)*%
X131997996Y-97452311D02*
X131997996Y-96575000D01*
X132763790Y-98218105D02*
X131997996Y-97452311D01*
%TO.N,TX*%
X140786716Y-96049680D02*
X144636396Y-92200000D01*
X140786716Y-97202904D02*
X140786716Y-96049680D01*
%TO.N,RX*%
X139787335Y-96412665D02*
X139787335Y-97187359D01*
%TO.N,TX*%
X144636396Y-92200000D02*
X153000000Y-92200000D01*
%TO.N,RX*%
X145000000Y-91200000D02*
X139787335Y-96412665D01*
X153600000Y-91200000D02*
X145000000Y-91200000D01*
%TO.N,Net-(SW1-B)*%
X147200000Y-94800000D02*
X143061702Y-94800000D01*
X150800000Y-98400000D02*
X147200000Y-94800000D01*
X143061702Y-94800000D02*
X143030851Y-94830851D01*
D16*
%TO.N,D+*%
X125400000Y-95800000D02*
X125400000Y-97200000D01*
%TD*%
%TA.AperFunction,Conductor*%
%TO.N,VSS*%
G36*
X174842539Y-89020185D02*
G01*
X174888294Y-89072989D01*
X174899500Y-89124500D01*
X174899500Y-102875500D01*
X174879815Y-102942539D01*
X174827011Y-102988294D01*
X174775500Y-102999500D01*
X169124500Y-102999500D01*
X169057461Y-102979815D01*
X169011706Y-102927011D01*
X169000500Y-102875500D01*
X169000500Y-102024759D01*
X169000528Y-102024616D01*
X169000524Y-102024616D01*
X169000539Y-102000002D01*
X169000541Y-102000000D01*
X169000462Y-101999808D01*
X169000384Y-101999618D01*
X169000382Y-101999616D01*
X169000099Y-101999500D01*
X169000001Y-101999459D01*
X168975963Y-101999416D01*
X168975492Y-101999509D01*
X121583600Y-102018127D01*
X121579150Y-102017969D01*
X121511511Y-102013130D01*
X121349795Y-102000403D01*
X121341470Y-101999175D01*
X121241595Y-101977447D01*
X121115623Y-101947205D01*
X121108431Y-101945009D01*
X121006278Y-101906907D01*
X120892053Y-101859592D01*
X120886062Y-101856726D01*
X120815904Y-101818417D01*
X120789199Y-101803835D01*
X120786528Y-101802289D01*
X120684060Y-101739495D01*
X120679297Y-101736263D01*
X120590128Y-101669512D01*
X120587017Y-101667023D01*
X120496305Y-101589548D01*
X120492729Y-101586242D01*
X120413756Y-101507269D01*
X120410450Y-101503693D01*
X120332975Y-101412981D01*
X120330486Y-101409870D01*
X120282234Y-101345413D01*
X120263731Y-101320695D01*
X120260503Y-101315938D01*
X120231552Y-101268695D01*
X120197691Y-101213438D01*
X120196178Y-101210826D01*
X120143272Y-101113936D01*
X120140406Y-101107945D01*
X120093093Y-100993721D01*
X120080614Y-100960267D01*
X120054980Y-100891543D01*
X120052798Y-100884391D01*
X120022552Y-100758404D01*
X120008561Y-100694093D01*
X120000821Y-100658515D01*
X119999598Y-100650226D01*
X119995252Y-100595000D01*
X120574134Y-100595000D01*
X120574431Y-100596946D01*
X120574433Y-100596952D01*
X120645062Y-100787657D01*
X120645065Y-100787664D01*
X120752649Y-100960267D01*
X120892764Y-101107668D01*
X120892766Y-101107669D01*
X121059695Y-101223856D01*
X121246592Y-101304059D01*
X121445810Y-101345000D01*
X121697500Y-101345000D01*
X121697500Y-100645000D01*
X122197500Y-100645000D01*
X122197500Y-101345000D01*
X122398213Y-101345000D01*
X122549838Y-101329581D01*
X122743881Y-101268700D01*
X122743891Y-101268695D01*
X122921715Y-101169994D01*
X122921716Y-101169994D01*
X123076030Y-101037521D01*
X123076031Y-101037520D01*
X123200518Y-100876695D01*
X123290088Y-100694093D01*
X123315746Y-100595000D01*
X124574134Y-100595000D01*
X124574431Y-100596946D01*
X124574433Y-100596952D01*
X124645062Y-100787657D01*
X124645065Y-100787664D01*
X124752649Y-100960267D01*
X124892764Y-101107668D01*
X124892766Y-101107669D01*
X125059695Y-101223856D01*
X125246592Y-101304059D01*
X125445810Y-101345000D01*
X125847500Y-101345000D01*
X125847500Y-100645000D01*
X126347500Y-100645000D01*
X126347500Y-101345000D01*
X126698213Y-101345000D01*
X126849838Y-101329581D01*
X127043881Y-101268700D01*
X127043891Y-101268695D01*
X127221715Y-101169994D01*
X127221716Y-101169994D01*
X127376030Y-101037521D01*
X127376031Y-101037520D01*
X127500518Y-100876695D01*
X127590088Y-100694093D01*
X127615746Y-100595000D01*
X126813611Y-100595000D01*
X126853110Y-100570543D01*
X126920701Y-100481038D01*
X126951395Y-100373160D01*
X126941046Y-100261479D01*
X126891052Y-100161078D01*
X126818569Y-100095000D01*
X127620866Y-100095000D01*
X127620568Y-100093053D01*
X127620566Y-100093047D01*
X127549937Y-99902342D01*
X127549934Y-99902335D01*
X127473290Y-99779371D01*
X127454534Y-99712066D01*
X127475143Y-99645305D01*
X127528574Y-99600284D01*
X127597863Y-99591297D01*
X127661012Y-99621197D01*
X127666199Y-99626094D01*
X128610647Y-100570543D01*
X129533892Y-101493788D01*
X129543717Y-101506051D01*
X129543938Y-101505869D01*
X129548909Y-101511878D01*
X129574912Y-101536295D01*
X129599330Y-101559226D01*
X129620224Y-101580120D01*
X129625706Y-101584373D01*
X129630138Y-101588157D01*
X129664113Y-101620062D01*
X129681671Y-101629714D01*
X129697930Y-101640395D01*
X129713759Y-101652673D01*
X129756533Y-101671182D01*
X129761751Y-101673738D01*
X129802603Y-101696197D01*
X129822011Y-101701180D01*
X129840412Y-101707480D01*
X129858799Y-101715437D01*
X129902183Y-101722308D01*
X129904814Y-101722725D01*
X129910534Y-101723909D01*
X129955676Y-101735500D01*
X129975711Y-101735500D01*
X129995109Y-101737026D01*
X130014889Y-101740159D01*
X130014890Y-101740160D01*
X130014890Y-101740159D01*
X130014891Y-101740160D01*
X130061279Y-101735775D01*
X130067117Y-101735500D01*
X171794773Y-101735500D01*
X171861812Y-101755185D01*
X171896348Y-101788377D01*
X172031500Y-101981395D01*
X172031505Y-101981401D01*
X172198599Y-102148495D01*
X172295384Y-102216265D01*
X172392165Y-102284032D01*
X172392167Y-102284033D01*
X172392170Y-102284035D01*
X172606337Y-102383903D01*
X172834592Y-102445063D01*
X173022918Y-102461539D01*
X173069999Y-102465659D01*
X173070000Y-102465659D01*
X173070001Y-102465659D01*
X173109234Y-102462226D01*
X173305408Y-102445063D01*
X173533663Y-102383903D01*
X173747830Y-102284035D01*
X173941401Y-102148495D01*
X174108495Y-101981401D01*
X174244035Y-101787830D01*
X174343903Y-101573663D01*
X174405063Y-101345408D01*
X174425659Y-101110000D01*
X174405063Y-100874592D01*
X174343903Y-100646337D01*
X174244035Y-100432171D01*
X174243652Y-100431623D01*
X174108494Y-100238597D01*
X173941402Y-100071506D01*
X173941401Y-100071505D01*
X173755405Y-99941269D01*
X173711781Y-99886692D01*
X173704588Y-99817193D01*
X173736110Y-99754839D01*
X173755405Y-99738119D01*
X173941082Y-99608105D01*
X174108105Y-99441082D01*
X174243600Y-99247578D01*
X174343429Y-99033492D01*
X174343432Y-99033486D01*
X174400636Y-98820000D01*
X173503686Y-98820000D01*
X173529493Y-98779844D01*
X173570000Y-98641889D01*
X173570000Y-98498111D01*
X173529493Y-98360156D01*
X173503686Y-98320000D01*
X174400636Y-98320000D01*
X174400635Y-98319999D01*
X174343432Y-98106513D01*
X174343429Y-98106507D01*
X174243600Y-97892422D01*
X174243599Y-97892420D01*
X174108113Y-97698926D01*
X174108108Y-97698920D01*
X173941078Y-97531890D01*
X173755405Y-97401879D01*
X173711780Y-97347302D01*
X173704588Y-97277804D01*
X173736110Y-97215449D01*
X173755406Y-97198730D01*
X173766853Y-97190715D01*
X173941401Y-97068495D01*
X174108495Y-96901401D01*
X174244035Y-96707830D01*
X174343903Y-96493663D01*
X174405063Y-96265408D01*
X174425659Y-96030000D01*
X174425221Y-96024999D01*
X174405063Y-95794596D01*
X174405063Y-95794592D01*
X174343903Y-95566337D01*
X174244035Y-95352171D01*
X174243652Y-95351623D01*
X174108494Y-95158597D01*
X173941402Y-94991506D01*
X173941396Y-94991501D01*
X173755842Y-94861575D01*
X173712217Y-94806998D01*
X173705023Y-94737500D01*
X173736546Y-94675145D01*
X173755842Y-94658425D01*
X173784646Y-94638256D01*
X173941401Y-94528495D01*
X174108495Y-94361401D01*
X174244035Y-94167830D01*
X174343903Y-93953663D01*
X174405063Y-93725408D01*
X174425659Y-93490000D01*
X174405063Y-93254592D01*
X174356772Y-93074364D01*
X174343905Y-93026344D01*
X174343904Y-93026343D01*
X174343903Y-93026337D01*
X174244035Y-92812171D01*
X174240402Y-92806983D01*
X174108496Y-92618600D01*
X174049396Y-92559500D01*
X173986567Y-92496671D01*
X173953084Y-92435351D01*
X173958068Y-92365659D01*
X173999939Y-92309725D01*
X174030915Y-92292810D01*
X174162331Y-92243796D01*
X174277546Y-92157546D01*
X174363796Y-92042331D01*
X174414091Y-91907483D01*
X174420500Y-91847873D01*
X174420499Y-90052128D01*
X174414091Y-89992517D01*
X174407889Y-89975889D01*
X174363797Y-89857671D01*
X174363793Y-89857664D01*
X174277547Y-89742455D01*
X174277544Y-89742452D01*
X174162335Y-89656206D01*
X174162328Y-89656202D01*
X174027482Y-89605908D01*
X174027483Y-89605908D01*
X173967883Y-89599501D01*
X173967881Y-89599500D01*
X173967873Y-89599500D01*
X173967864Y-89599500D01*
X172172129Y-89599500D01*
X172172123Y-89599501D01*
X172112516Y-89605908D01*
X171977671Y-89656202D01*
X171977664Y-89656206D01*
X171862455Y-89742452D01*
X171862452Y-89742455D01*
X171776206Y-89857664D01*
X171776202Y-89857671D01*
X171725908Y-89992517D01*
X171721655Y-90032082D01*
X171719501Y-90052123D01*
X171719500Y-90052135D01*
X171719500Y-91076940D01*
X171699815Y-91143979D01*
X171647011Y-91189734D01*
X171577853Y-91199678D01*
X171560908Y-91196017D01*
X171555898Y-91194561D01*
X171509874Y-91187272D01*
X171504152Y-91186087D01*
X171459021Y-91174500D01*
X171459019Y-91174500D01*
X171438984Y-91174500D01*
X171419586Y-91172973D01*
X171412162Y-91171797D01*
X171399805Y-91169840D01*
X171399804Y-91169840D01*
X171353416Y-91174225D01*
X171347578Y-91174500D01*
X158903748Y-91174500D01*
X158836709Y-91154815D01*
X158811600Y-91133474D01*
X158805873Y-91127114D01*
X158805869Y-91127110D01*
X158652734Y-91015851D01*
X158652729Y-91015848D01*
X158479807Y-90938857D01*
X158479802Y-90938855D01*
X158318635Y-90904599D01*
X158294646Y-90899500D01*
X158105354Y-90899500D01*
X158081365Y-90904599D01*
X157920197Y-90938855D01*
X157920192Y-90938857D01*
X157747270Y-91015848D01*
X157747265Y-91015851D01*
X157594132Y-91127109D01*
X157594129Y-91127111D01*
X157594129Y-91127112D01*
X157532087Y-91196017D01*
X157500371Y-91231241D01*
X157440884Y-91267889D01*
X157371027Y-91266558D01*
X157320540Y-91235949D01*
X156900803Y-90816212D01*
X156890980Y-90803950D01*
X156890759Y-90804134D01*
X156885786Y-90798123D01*
X156835364Y-90750773D01*
X156819836Y-90735245D01*
X156814475Y-90729883D01*
X156808986Y-90725625D01*
X156804561Y-90721847D01*
X156770582Y-90689938D01*
X156770580Y-90689936D01*
X156770577Y-90689935D01*
X156753029Y-90680288D01*
X156736763Y-90669604D01*
X156720933Y-90657325D01*
X156678168Y-90638818D01*
X156672922Y-90636248D01*
X156632093Y-90613803D01*
X156632092Y-90613802D01*
X156612693Y-90608822D01*
X156594281Y-90602518D01*
X156575898Y-90594562D01*
X156575892Y-90594560D01*
X156529874Y-90587272D01*
X156524152Y-90586087D01*
X156479021Y-90574500D01*
X156479019Y-90574500D01*
X156458984Y-90574500D01*
X156439586Y-90572973D01*
X156432162Y-90571797D01*
X156419805Y-90569840D01*
X156419804Y-90569840D01*
X156373416Y-90574225D01*
X156367578Y-90574500D01*
X154303748Y-90574500D01*
X154236709Y-90554815D01*
X154211600Y-90533474D01*
X154205873Y-90527114D01*
X154205869Y-90527110D01*
X154052734Y-90415851D01*
X154052729Y-90415848D01*
X153879807Y-90338857D01*
X153879802Y-90338855D01*
X153734001Y-90307865D01*
X153694646Y-90299500D01*
X153505354Y-90299500D01*
X153472897Y-90306398D01*
X153320197Y-90338855D01*
X153320192Y-90338857D01*
X153147270Y-90415848D01*
X153147265Y-90415851D01*
X152994130Y-90527110D01*
X152994126Y-90527114D01*
X152988400Y-90533474D01*
X152928913Y-90570121D01*
X152896252Y-90574500D01*
X145082743Y-90574500D01*
X145067122Y-90572775D01*
X145067095Y-90573061D01*
X145059333Y-90572326D01*
X144990172Y-90574500D01*
X144960649Y-90574500D01*
X144953778Y-90575367D01*
X144947959Y-90575825D01*
X144901374Y-90577289D01*
X144901368Y-90577290D01*
X144882126Y-90582880D01*
X144863087Y-90586823D01*
X144843217Y-90589334D01*
X144843203Y-90589337D01*
X144799883Y-90606488D01*
X144794358Y-90608380D01*
X144749613Y-90621380D01*
X144749610Y-90621381D01*
X144732366Y-90631579D01*
X144714905Y-90640133D01*
X144696274Y-90647510D01*
X144696262Y-90647517D01*
X144658570Y-90674902D01*
X144653687Y-90678109D01*
X144613580Y-90701829D01*
X144599414Y-90715995D01*
X144584624Y-90728627D01*
X144568414Y-90740404D01*
X144568411Y-90740407D01*
X144538710Y-90776309D01*
X144534777Y-90780631D01*
X143966831Y-91348577D01*
X143905508Y-91382062D01*
X143835816Y-91377078D01*
X143779883Y-91335206D01*
X143763823Y-91301269D01*
X143762451Y-91301790D01*
X143759790Y-91294774D01*
X143680736Y-91144150D01*
X143661560Y-91122505D01*
X143567929Y-91016817D01*
X143518177Y-90982475D01*
X143427931Y-90920182D01*
X143268874Y-90859860D01*
X143268868Y-90859859D01*
X143142374Y-90844500D01*
X143142372Y-90844500D01*
X143057628Y-90844500D01*
X143057626Y-90844500D01*
X142931131Y-90859859D01*
X142931125Y-90859860D01*
X142772068Y-90920182D01*
X142632072Y-91016816D01*
X142519263Y-91144150D01*
X142440210Y-91294773D01*
X142399500Y-91459944D01*
X142399500Y-91630055D01*
X142440210Y-91795226D01*
X142519263Y-91945849D01*
X142535772Y-91964484D01*
X142632071Y-92073183D01*
X142722318Y-92135476D01*
X142772068Y-92169817D01*
X142772069Y-92169817D01*
X142772070Y-92169818D01*
X142863560Y-92204515D01*
X142919263Y-92246692D01*
X142943321Y-92312290D01*
X142928095Y-92380480D01*
X142907271Y-92408138D01*
X139403543Y-95911864D01*
X139391286Y-95921685D01*
X139391469Y-95921906D01*
X139385458Y-95926878D01*
X139338107Y-95977301D01*
X139317224Y-95998184D01*
X139317212Y-95998197D01*
X139312956Y-96003682D01*
X139309172Y-96008112D01*
X139277272Y-96042083D01*
X139277271Y-96042085D01*
X139267619Y-96059641D01*
X139256945Y-96075891D01*
X139244664Y-96091726D01*
X139244659Y-96091733D01*
X139226150Y-96134503D01*
X139223580Y-96139749D01*
X139201138Y-96180571D01*
X139196157Y-96199972D01*
X139189856Y-96218375D01*
X139181894Y-96236775D01*
X139181353Y-96238637D01*
X139180533Y-96239919D01*
X139178800Y-96243926D01*
X139178153Y-96243646D01*
X139149280Y-96288842D01*
X139161800Y-96328005D01*
X139161835Y-96330957D01*
X139161835Y-96353681D01*
X139160308Y-96373080D01*
X139157175Y-96392859D01*
X139157175Y-96392860D01*
X139161560Y-96439248D01*
X139161835Y-96445086D01*
X139161835Y-96488671D01*
X139142150Y-96555710D01*
X139129985Y-96571643D01*
X139050454Y-96659972D01*
X139048626Y-96658326D01*
X139002075Y-96694216D01*
X138932462Y-96700189D01*
X138870669Y-96667578D01*
X138836317Y-96606736D01*
X138840312Y-96536981D01*
X138844715Y-96526256D01*
X138853154Y-96508159D01*
X138873903Y-96463663D01*
X138918060Y-96298863D01*
X138950516Y-96245616D01*
X138938281Y-96204365D01*
X138938751Y-96193244D01*
X138955659Y-96000000D01*
X138935063Y-95764592D01*
X138873903Y-95536337D01*
X138774035Y-95322171D01*
X138774034Y-95322169D01*
X138638494Y-95128597D01*
X138471402Y-94961505D01*
X138277830Y-94825965D01*
X138277828Y-94825964D01*
X138170746Y-94776031D01*
X138063663Y-94726097D01*
X138063659Y-94726096D01*
X138063655Y-94726094D01*
X137835413Y-94664938D01*
X137835403Y-94664936D01*
X137658966Y-94649500D01*
X137541034Y-94649500D01*
X137364596Y-94664936D01*
X137364586Y-94664938D01*
X137136344Y-94726094D01*
X137136335Y-94726098D01*
X136922171Y-94825964D01*
X136922169Y-94825965D01*
X136728597Y-94961505D01*
X136561506Y-95128597D01*
X136561501Y-95128604D01*
X136425967Y-95322165D01*
X136425965Y-95322169D01*
X136326098Y-95536335D01*
X136326094Y-95536344D01*
X136264938Y-95764586D01*
X136264936Y-95764596D01*
X136244341Y-95999999D01*
X136244341Y-96000000D01*
X136264936Y-96235403D01*
X136264938Y-96235413D01*
X136326094Y-96463655D01*
X136326096Y-96463659D01*
X136326097Y-96463663D01*
X136346846Y-96508159D01*
X136425964Y-96677828D01*
X136425965Y-96677830D01*
X136561505Y-96871402D01*
X136728597Y-97038494D01*
X136922169Y-97174034D01*
X136922171Y-97174035D01*
X137136337Y-97273903D01*
X137136343Y-97273904D01*
X137136344Y-97273905D01*
X137174919Y-97284241D01*
X137364592Y-97335063D01*
X137541034Y-97350500D01*
X137658966Y-97350500D01*
X137835408Y-97335063D01*
X138063663Y-97273903D01*
X138277829Y-97174035D01*
X138471401Y-97038495D01*
X138638495Y-96871401D01*
X138731025Y-96739253D01*
X138785602Y-96695629D01*
X138855100Y-96688435D01*
X138917455Y-96719958D01*
X138952869Y-96780187D01*
X138950531Y-96848695D01*
X138901662Y-96999099D01*
X138901661Y-96999103D01*
X138881875Y-97187359D01*
X138901661Y-97375615D01*
X138901662Y-97375618D01*
X138960153Y-97555636D01*
X138960156Y-97555643D01*
X139054802Y-97719575D01*
X139172076Y-97849821D01*
X139181464Y-97860247D01*
X139334600Y-97971507D01*
X139334605Y-97971510D01*
X139507527Y-98048501D01*
X139507532Y-98048503D01*
X139692689Y-98087859D01*
X139692690Y-98087859D01*
X139881979Y-98087859D01*
X139881981Y-98087859D01*
X140067138Y-98048503D01*
X140220172Y-97980366D01*
X140289420Y-97971082D01*
X140327954Y-97984623D01*
X140328049Y-97984412D01*
X140330659Y-97985574D01*
X140332608Y-97986259D01*
X140333980Y-97987050D01*
X140333986Y-97987055D01*
X140420449Y-98025551D01*
X140506908Y-98064046D01*
X140506913Y-98064048D01*
X140692070Y-98103404D01*
X140692071Y-98103404D01*
X140881360Y-98103404D01*
X140881362Y-98103404D01*
X141066519Y-98064048D01*
X141239446Y-97987055D01*
X141392587Y-97875792D01*
X141519249Y-97735120D01*
X141613895Y-97571188D01*
X141672390Y-97391160D01*
X141692176Y-97202904D01*
X141672390Y-97014648D01*
X141613895Y-96834620D01*
X141519249Y-96670688D01*
X141495139Y-96643911D01*
X141444066Y-96587188D01*
X141413836Y-96524196D01*
X141412216Y-96504216D01*
X141412216Y-96360131D01*
X141431901Y-96293092D01*
X141448531Y-96272454D01*
X142234161Y-95486823D01*
X142295482Y-95453340D01*
X142365173Y-95458324D01*
X142413988Y-95491532D01*
X142424978Y-95503737D01*
X142424986Y-95503744D01*
X142578116Y-95614999D01*
X142578121Y-95615002D01*
X142751043Y-95691993D01*
X142751048Y-95691995D01*
X142936205Y-95731351D01*
X142936206Y-95731351D01*
X143125495Y-95731351D01*
X143125497Y-95731351D01*
X143310654Y-95691995D01*
X143483581Y-95615002D01*
X143636722Y-95503739D01*
X143670227Y-95466527D01*
X143729714Y-95429879D01*
X143762377Y-95425500D01*
X146889548Y-95425500D01*
X146956587Y-95445185D01*
X146977229Y-95461819D01*
X149861038Y-98345629D01*
X149894523Y-98406952D01*
X149896678Y-98420348D01*
X149904852Y-98498111D01*
X149914326Y-98588256D01*
X149914327Y-98588259D01*
X149972818Y-98768277D01*
X149972821Y-98768284D01*
X150067467Y-98932216D01*
X150168209Y-99044101D01*
X150194129Y-99072888D01*
X150347265Y-99184148D01*
X150347270Y-99184151D01*
X150520192Y-99261142D01*
X150520197Y-99261144D01*
X150705354Y-99300500D01*
X150705355Y-99300500D01*
X150894644Y-99300500D01*
X150894646Y-99300500D01*
X151079803Y-99261144D01*
X151252730Y-99184151D01*
X151405871Y-99072888D01*
X151532533Y-98932216D01*
X151627179Y-98768284D01*
X151685674Y-98588256D01*
X151705460Y-98400000D01*
X151685674Y-98211744D01*
X151627179Y-98031716D01*
X151532533Y-97867784D01*
X151405871Y-97727112D01*
X151400107Y-97722924D01*
X151252734Y-97615851D01*
X151252729Y-97615848D01*
X151079807Y-97538857D01*
X151079802Y-97538855D01*
X150917515Y-97504361D01*
X150894646Y-97499500D01*
X150894645Y-97499500D01*
X150835452Y-97499500D01*
X150768413Y-97479815D01*
X150747771Y-97463181D01*
X149309590Y-96025000D01*
X158214341Y-96025000D01*
X158234936Y-96260403D01*
X158234938Y-96260413D01*
X158296094Y-96488655D01*
X158296096Y-96488659D01*
X158296097Y-96488663D01*
X158325546Y-96551816D01*
X158395964Y-96702828D01*
X158395965Y-96702830D01*
X158531505Y-96896402D01*
X158698597Y-97063494D01*
X158892169Y-97199034D01*
X158892171Y-97199035D01*
X159106337Y-97298903D01*
X159334592Y-97360063D01*
X159511034Y-97375500D01*
X159628966Y-97375500D01*
X159805408Y-97360063D01*
X160033663Y-97298903D01*
X160247829Y-97199035D01*
X160441401Y-97063495D01*
X160608495Y-96896401D01*
X160744035Y-96702830D01*
X160843903Y-96488663D01*
X160905063Y-96260408D01*
X160925659Y-96025000D01*
X160924181Y-96008112D01*
X160914907Y-95902111D01*
X160905063Y-95789592D01*
X160843903Y-95561337D01*
X160744035Y-95347171D01*
X160744034Y-95347169D01*
X160608494Y-95153597D01*
X160441402Y-94986505D01*
X160247830Y-94850965D01*
X160247828Y-94850964D01*
X160101006Y-94782500D01*
X160033663Y-94751097D01*
X160033659Y-94751096D01*
X160033655Y-94751094D01*
X159805413Y-94689938D01*
X159805403Y-94689936D01*
X159628966Y-94674500D01*
X159511034Y-94674500D01*
X159334596Y-94689936D01*
X159334586Y-94689938D01*
X159106344Y-94751094D01*
X159106335Y-94751098D01*
X158892171Y-94850964D01*
X158892169Y-94850965D01*
X158698597Y-94986505D01*
X158531506Y-95153597D01*
X158531501Y-95153604D01*
X158395967Y-95347165D01*
X158395965Y-95347169D01*
X158296098Y-95561335D01*
X158296094Y-95561344D01*
X158234938Y-95789586D01*
X158234936Y-95789596D01*
X158214341Y-96024999D01*
X158214341Y-96025000D01*
X149309590Y-96025000D01*
X147700803Y-94416212D01*
X147690980Y-94403950D01*
X147690759Y-94404134D01*
X147685786Y-94398123D01*
X147635364Y-94350773D01*
X147624919Y-94340328D01*
X147614475Y-94329883D01*
X147608986Y-94325625D01*
X147604561Y-94321847D01*
X147570582Y-94289938D01*
X147570580Y-94289936D01*
X147570577Y-94289935D01*
X147553029Y-94280288D01*
X147536763Y-94269604D01*
X147520933Y-94257325D01*
X147478168Y-94238818D01*
X147472922Y-94236248D01*
X147432093Y-94213803D01*
X147432092Y-94213802D01*
X147412693Y-94208822D01*
X147394281Y-94202518D01*
X147375898Y-94194562D01*
X147375892Y-94194560D01*
X147329874Y-94187272D01*
X147324152Y-94186087D01*
X147279021Y-94174500D01*
X147279019Y-94174500D01*
X147258984Y-94174500D01*
X147239586Y-94172973D01*
X147232162Y-94171797D01*
X147219805Y-94169840D01*
X147219804Y-94169840D01*
X147173416Y-94174225D01*
X147167578Y-94174500D01*
X143845847Y-94174500D01*
X143778808Y-94154815D01*
X143733053Y-94102011D01*
X143723109Y-94032853D01*
X143752134Y-93969297D01*
X143758166Y-93962819D01*
X144295753Y-93425233D01*
X144859167Y-92861819D01*
X144920490Y-92828334D01*
X144946848Y-92825500D01*
X152296252Y-92825500D01*
X152363291Y-92845185D01*
X152388400Y-92866526D01*
X152394126Y-92872885D01*
X152394130Y-92872889D01*
X152547265Y-92984148D01*
X152547270Y-92984151D01*
X152720192Y-93061142D01*
X152720197Y-93061144D01*
X152905354Y-93100500D01*
X152905355Y-93100500D01*
X153094644Y-93100500D01*
X153094646Y-93100500D01*
X153279803Y-93061144D01*
X153452730Y-92984151D01*
X153605871Y-92872888D01*
X153732533Y-92732216D01*
X153827179Y-92568284D01*
X153885674Y-92388256D01*
X153905460Y-92200000D01*
X153899787Y-92146032D01*
X153912356Y-92077306D01*
X153960087Y-92026282D01*
X153972655Y-92019802D01*
X154052730Y-91984151D01*
X154205871Y-91872888D01*
X154208788Y-91869647D01*
X154211600Y-91866526D01*
X154271087Y-91829879D01*
X154303748Y-91825500D01*
X156089548Y-91825500D01*
X156156587Y-91845185D01*
X156177229Y-91861819D01*
X157299197Y-92983788D01*
X157309022Y-92996051D01*
X157309243Y-92995869D01*
X157314214Y-93001878D01*
X157340217Y-93026295D01*
X157364635Y-93049226D01*
X157385529Y-93070120D01*
X157391011Y-93074373D01*
X157395443Y-93078157D01*
X157429418Y-93110062D01*
X157446976Y-93119714D01*
X157463233Y-93130393D01*
X157479064Y-93142673D01*
X157498737Y-93151186D01*
X157521833Y-93161182D01*
X157527077Y-93163750D01*
X157567908Y-93186197D01*
X157580523Y-93189435D01*
X157587305Y-93191177D01*
X157605719Y-93197481D01*
X157624104Y-93205438D01*
X157670157Y-93212732D01*
X157675826Y-93213906D01*
X157720981Y-93225500D01*
X157741016Y-93225500D01*
X157760413Y-93227026D01*
X157780196Y-93230160D01*
X157826584Y-93225775D01*
X157832422Y-93225500D01*
X167689548Y-93225500D01*
X167756587Y-93245185D01*
X167777229Y-93261819D01*
X170929194Y-96413784D01*
X170939019Y-96426048D01*
X170939240Y-96425866D01*
X170944210Y-96431873D01*
X170944213Y-96431876D01*
X170944214Y-96431877D01*
X170994651Y-96479241D01*
X171015530Y-96500120D01*
X171021004Y-96504366D01*
X171025442Y-96508156D01*
X171059418Y-96540062D01*
X171059422Y-96540064D01*
X171076973Y-96549713D01*
X171093231Y-96560392D01*
X171109064Y-96572674D01*
X171131015Y-96582172D01*
X171151837Y-96591183D01*
X171157081Y-96593752D01*
X171197908Y-96616197D01*
X171217312Y-96621179D01*
X171235710Y-96627478D01*
X171254105Y-96635438D01*
X171300129Y-96642726D01*
X171305832Y-96643907D01*
X171350981Y-96655500D01*
X171371016Y-96655500D01*
X171390413Y-96657026D01*
X171410196Y-96660160D01*
X171456584Y-96655775D01*
X171462422Y-96655500D01*
X171794773Y-96655500D01*
X171861812Y-96675185D01*
X171896348Y-96708377D01*
X172031501Y-96901396D01*
X172031506Y-96901402D01*
X172198597Y-97068493D01*
X172198603Y-97068498D01*
X172384594Y-97198730D01*
X172428219Y-97253307D01*
X172435413Y-97322805D01*
X172403890Y-97385160D01*
X172384595Y-97401880D01*
X172198922Y-97531890D01*
X172198920Y-97531891D01*
X172031891Y-97698920D01*
X172031886Y-97698926D01*
X171896400Y-97892420D01*
X171896399Y-97892422D01*
X171796570Y-98106507D01*
X171796567Y-98106513D01*
X171739364Y-98319999D01*
X171739364Y-98320000D01*
X172636314Y-98320000D01*
X172610507Y-98360156D01*
X172570000Y-98498111D01*
X172570000Y-98641889D01*
X172610507Y-98779844D01*
X172636314Y-98820000D01*
X171739364Y-98820000D01*
X171796567Y-99033486D01*
X171796570Y-99033492D01*
X171896399Y-99247578D01*
X172031894Y-99441082D01*
X172198917Y-99608105D01*
X172384595Y-99738119D01*
X172428219Y-99792696D01*
X172435412Y-99862195D01*
X172403890Y-99924549D01*
X172384595Y-99941269D01*
X172198594Y-100071508D01*
X172031505Y-100238597D01*
X171896348Y-100431623D01*
X171841771Y-100475248D01*
X171794773Y-100484500D01*
X130345148Y-100484500D01*
X130278109Y-100464815D01*
X130257467Y-100448181D01*
X129004160Y-99194874D01*
X128970675Y-99133551D01*
X128975659Y-99063859D01*
X128999691Y-99024221D01*
X129082533Y-98932216D01*
X129177179Y-98768284D01*
X129235674Y-98588256D01*
X129253321Y-98420344D01*
X129279904Y-98355734D01*
X129288951Y-98345638D01*
X129683788Y-97950801D01*
X129696042Y-97940986D01*
X129695859Y-97940764D01*
X129701866Y-97935792D01*
X129701877Y-97935786D01*
X129732775Y-97902882D01*
X129749227Y-97885364D01*
X129759671Y-97874918D01*
X129770120Y-97864471D01*
X129774379Y-97858978D01*
X129778152Y-97854561D01*
X129810062Y-97820582D01*
X129819715Y-97803020D01*
X129830389Y-97786770D01*
X129842673Y-97770936D01*
X129861180Y-97728167D01*
X129863749Y-97722924D01*
X129876942Y-97698926D01*
X129886197Y-97682092D01*
X129891177Y-97662691D01*
X129897478Y-97644288D01*
X129905438Y-97625896D01*
X129912730Y-97579849D01*
X129913911Y-97574152D01*
X129925500Y-97529019D01*
X129925500Y-97508983D01*
X129927027Y-97489582D01*
X129928574Y-97479815D01*
X129930160Y-97469804D01*
X129925775Y-97423415D01*
X129925500Y-97417577D01*
X129925500Y-96575000D01*
X131092536Y-96575000D01*
X131112322Y-96763256D01*
X131112323Y-96763259D01*
X131170814Y-96943277D01*
X131170817Y-96943284D01*
X131265463Y-97107216D01*
X131270133Y-97112402D01*
X131340646Y-97190715D01*
X131370876Y-97253706D01*
X131372496Y-97273687D01*
X131372496Y-97369566D01*
X131370771Y-97385183D01*
X131371057Y-97385210D01*
X131370322Y-97392976D01*
X131372496Y-97462125D01*
X131372496Y-97491654D01*
X131372497Y-97491671D01*
X131373364Y-97498542D01*
X131373822Y-97504361D01*
X131375286Y-97550935D01*
X131375287Y-97550938D01*
X131380876Y-97570178D01*
X131384820Y-97589222D01*
X131387332Y-97609103D01*
X131390003Y-97615849D01*
X131404486Y-97652430D01*
X131406378Y-97657958D01*
X131419377Y-97702699D01*
X131429576Y-97719945D01*
X131438134Y-97737414D01*
X131445510Y-97756043D01*
X131472894Y-97793734D01*
X131476102Y-97798618D01*
X131499823Y-97838727D01*
X131499829Y-97838735D01*
X131513986Y-97852891D01*
X131526623Y-97867686D01*
X131538402Y-97883898D01*
X131548703Y-97892420D01*
X131574305Y-97913599D01*
X131578616Y-97917521D01*
X131763741Y-98102647D01*
X131824828Y-98163734D01*
X131858313Y-98225057D01*
X131860468Y-98238453D01*
X131860547Y-98239202D01*
X131878116Y-98406361D01*
X131878117Y-98406364D01*
X131936608Y-98586382D01*
X131936611Y-98586389D01*
X132031257Y-98750321D01*
X132100784Y-98827538D01*
X132157919Y-98890993D01*
X132311055Y-99002253D01*
X132311060Y-99002256D01*
X132483982Y-99079247D01*
X132483987Y-99079249D01*
X132669144Y-99118605D01*
X132669145Y-99118605D01*
X132858434Y-99118605D01*
X132858436Y-99118605D01*
X133043593Y-99079249D01*
X133216520Y-99002256D01*
X133369661Y-98890993D01*
X133496323Y-98750321D01*
X133590969Y-98586389D01*
X133649464Y-98406361D01*
X133669250Y-98218105D01*
X133649464Y-98029849D01*
X133590969Y-97849821D01*
X133496323Y-97685889D01*
X133369661Y-97545217D01*
X133366483Y-97542908D01*
X133216524Y-97433956D01*
X133216519Y-97433953D01*
X133043597Y-97356962D01*
X133043592Y-97356960D01*
X132882900Y-97322805D01*
X132858436Y-97317605D01*
X132858435Y-97317605D01*
X132819602Y-97317605D01*
X132752563Y-97297920D01*
X132706808Y-97245116D01*
X132696864Y-97175958D01*
X132725889Y-97112402D01*
X132727454Y-97110631D01*
X132730529Y-97107216D01*
X132825175Y-96943284D01*
X132883670Y-96763256D01*
X132903456Y-96575000D01*
X132883670Y-96386744D01*
X132825175Y-96206716D01*
X132730529Y-96042784D01*
X132603867Y-95902112D01*
X132603866Y-95902111D01*
X132450730Y-95790851D01*
X132450725Y-95790848D01*
X132277803Y-95713857D01*
X132277798Y-95713855D01*
X132131997Y-95682865D01*
X132092642Y-95674500D01*
X131903350Y-95674500D01*
X131870893Y-95681398D01*
X131718193Y-95713855D01*
X131718188Y-95713857D01*
X131545266Y-95790848D01*
X131545261Y-95790851D01*
X131392125Y-95902111D01*
X131265462Y-96042785D01*
X131170817Y-96206715D01*
X131170814Y-96206722D01*
X131112323Y-96386740D01*
X131112322Y-96386744D01*
X131092536Y-96575000D01*
X129925500Y-96575000D01*
X129925500Y-95148687D01*
X129945185Y-95081648D01*
X129957350Y-95065715D01*
X129975891Y-95045122D01*
X130032533Y-94982216D01*
X130127179Y-94818284D01*
X130185674Y-94638256D01*
X130205460Y-94450000D01*
X130185674Y-94261744D01*
X130127179Y-94081716D01*
X130032533Y-93917784D01*
X129905871Y-93777112D01*
X129905870Y-93777111D01*
X129752734Y-93665851D01*
X129752729Y-93665848D01*
X129579807Y-93588857D01*
X129579802Y-93588855D01*
X129434001Y-93557865D01*
X129394646Y-93549500D01*
X129205354Y-93549500D01*
X129172897Y-93556398D01*
X129020197Y-93588855D01*
X129020192Y-93588857D01*
X128847270Y-93665848D01*
X128847265Y-93665851D01*
X128694129Y-93777111D01*
X128567466Y-93917785D01*
X128472821Y-94081715D01*
X128472818Y-94081722D01*
X128429903Y-94213802D01*
X128414326Y-94261744D01*
X128394540Y-94450000D01*
X128414326Y-94638256D01*
X128414327Y-94638259D01*
X128472818Y-94818277D01*
X128472821Y-94818284D01*
X128567467Y-94982216D01*
X128610772Y-95030310D01*
X128642650Y-95065715D01*
X128672880Y-95128706D01*
X128674500Y-95148687D01*
X128674500Y-96234597D01*
X128654815Y-96301636D01*
X128602011Y-96347391D01*
X128532853Y-96357335D01*
X128500065Y-96347877D01*
X128479802Y-96338855D01*
X128334001Y-96307865D01*
X128294646Y-96299500D01*
X128105354Y-96299500D01*
X128072897Y-96306398D01*
X127920197Y-96338855D01*
X127920192Y-96338857D01*
X127747270Y-96415848D01*
X127747265Y-96415851D01*
X127594129Y-96527111D01*
X127467466Y-96667785D01*
X127372821Y-96831715D01*
X127372818Y-96831722D01*
X127318433Y-96999103D01*
X127314326Y-97011744D01*
X127308361Y-97068498D01*
X127296679Y-97179649D01*
X127270094Y-97244263D01*
X127261039Y-97254368D01*
X127241208Y-97274199D01*
X127228951Y-97284020D01*
X127229134Y-97284241D01*
X127223123Y-97289213D01*
X127175772Y-97339636D01*
X127154889Y-97360519D01*
X127154877Y-97360532D01*
X127150621Y-97366017D01*
X127146837Y-97370447D01*
X127114937Y-97404418D01*
X127114936Y-97404420D01*
X127105284Y-97421976D01*
X127094610Y-97438226D01*
X127082329Y-97454061D01*
X127082324Y-97454068D01*
X127063815Y-97496838D01*
X127061245Y-97502084D01*
X127038803Y-97542906D01*
X127033822Y-97562307D01*
X127027521Y-97580710D01*
X127019562Y-97599102D01*
X127019561Y-97599105D01*
X127012271Y-97645127D01*
X127011087Y-97650846D01*
X126999501Y-97695972D01*
X126999500Y-97695982D01*
X126999500Y-97716016D01*
X126997973Y-97735415D01*
X126994840Y-97755194D01*
X126994840Y-97755195D01*
X126999225Y-97801583D01*
X126999500Y-97807421D01*
X126999500Y-98617560D01*
X126997775Y-98633177D01*
X126998061Y-98633204D01*
X126997326Y-98640970D01*
X126999500Y-98710119D01*
X126999500Y-98739648D01*
X126999501Y-98739665D01*
X127000368Y-98746536D01*
X127000826Y-98752355D01*
X127002290Y-98798929D01*
X127002291Y-98798932D01*
X127007880Y-98818172D01*
X127011824Y-98837216D01*
X127014336Y-98857096D01*
X127031490Y-98900424D01*
X127033382Y-98905952D01*
X127046381Y-98950693D01*
X127056580Y-98967939D01*
X127065138Y-98985408D01*
X127072514Y-99004037D01*
X127099898Y-99041728D01*
X127103106Y-99046612D01*
X127126827Y-99086721D01*
X127126833Y-99086729D01*
X127140990Y-99100885D01*
X127153628Y-99115681D01*
X127165405Y-99131891D01*
X127165406Y-99131892D01*
X127201309Y-99161593D01*
X127205620Y-99165515D01*
X127287683Y-99247578D01*
X127369388Y-99329283D01*
X127402873Y-99390606D01*
X127397889Y-99460298D01*
X127356017Y-99516231D01*
X127290553Y-99540648D01*
X127222280Y-99525796D01*
X127210870Y-99518739D01*
X127135304Y-99466143D01*
X126948407Y-99385940D01*
X126749190Y-99345000D01*
X126227884Y-99345000D01*
X126160845Y-99325315D01*
X126115090Y-99272511D01*
X126105146Y-99203353D01*
X126113323Y-99173547D01*
X126130577Y-99131891D01*
X126158187Y-99065236D01*
X126177966Y-98915000D01*
X126158187Y-98764764D01*
X126100198Y-98624767D01*
X126007951Y-98504549D01*
X125887733Y-98412302D01*
X125887729Y-98412300D01*
X125812441Y-98381115D01*
X125747736Y-98354313D01*
X125733671Y-98352461D01*
X125635227Y-98339500D01*
X125635220Y-98339500D01*
X125559780Y-98339500D01*
X125559773Y-98339500D01*
X125555728Y-98339766D01*
X125555597Y-98337774D01*
X125532675Y-98334191D01*
X125518227Y-98343477D01*
X125499479Y-98347438D01*
X125447264Y-98354313D01*
X125447263Y-98354313D01*
X125307270Y-98412300D01*
X125307267Y-98412301D01*
X125307267Y-98412302D01*
X125296780Y-98420349D01*
X125187049Y-98504549D01*
X125094800Y-98624770D01*
X125036813Y-98764763D01*
X125036812Y-98764765D01*
X125017034Y-98914999D01*
X125017034Y-98915000D01*
X125036812Y-99065234D01*
X125036813Y-99065236D01*
X125094800Y-99205230D01*
X125094802Y-99205233D01*
X125140339Y-99264578D01*
X125165533Y-99329747D01*
X125151495Y-99398192D01*
X125102681Y-99448181D01*
X125102141Y-99448483D01*
X124973284Y-99520004D01*
X124973283Y-99520005D01*
X124818969Y-99652478D01*
X124818968Y-99652479D01*
X124694481Y-99813304D01*
X124604911Y-99995906D01*
X124579254Y-100095000D01*
X125381389Y-100095000D01*
X125341890Y-100119457D01*
X125274299Y-100208962D01*
X125243605Y-100316840D01*
X125253954Y-100428521D01*
X125303948Y-100528922D01*
X125376431Y-100595000D01*
X124574134Y-100595000D01*
X123315746Y-100595000D01*
X122513611Y-100595000D01*
X122553110Y-100570543D01*
X122620701Y-100481038D01*
X122651395Y-100373160D01*
X122641046Y-100261479D01*
X122591052Y-100161078D01*
X122518569Y-100095000D01*
X123320866Y-100095000D01*
X123320568Y-100093053D01*
X123320566Y-100093047D01*
X123249937Y-99902342D01*
X123249934Y-99902335D01*
X123142350Y-99729732D01*
X123002235Y-99582331D01*
X123002233Y-99582330D01*
X122835304Y-99466143D01*
X122648407Y-99385940D01*
X122449190Y-99345000D01*
X122197500Y-99345000D01*
X122197500Y-100045000D01*
X121697500Y-100045000D01*
X121697500Y-99345000D01*
X121496787Y-99345000D01*
X121345161Y-99360418D01*
X121151118Y-99421299D01*
X121151108Y-99421304D01*
X120973284Y-99520005D01*
X120973283Y-99520005D01*
X120818969Y-99652478D01*
X120818968Y-99652479D01*
X120694481Y-99813304D01*
X120604911Y-99995906D01*
X120579254Y-100095000D01*
X121381389Y-100095000D01*
X121341890Y-100119457D01*
X121274299Y-100208962D01*
X121243605Y-100316840D01*
X121253954Y-100428521D01*
X121303948Y-100528922D01*
X121376431Y-100595000D01*
X120574134Y-100595000D01*
X119995252Y-100595000D01*
X119986860Y-100488372D01*
X119986583Y-100484500D01*
X119982032Y-100420880D01*
X119981875Y-100416373D01*
X119988669Y-97200000D01*
X124494540Y-97200000D01*
X124514326Y-97388256D01*
X124514327Y-97388259D01*
X124572818Y-97568277D01*
X124572821Y-97568284D01*
X124667467Y-97732216D01*
X124773359Y-97849821D01*
X124794129Y-97872888D01*
X124947265Y-97984148D01*
X124947270Y-97984151D01*
X125120192Y-98061142D01*
X125120197Y-98061144D01*
X125305354Y-98100500D01*
X125305355Y-98100500D01*
X125483292Y-98100500D01*
X125495526Y-98104092D01*
X125497237Y-98102647D01*
X125521576Y-98094775D01*
X125679803Y-98061144D01*
X125852730Y-97984151D01*
X126005871Y-97872888D01*
X126132533Y-97732216D01*
X126227179Y-97568284D01*
X126285674Y-97388256D01*
X126305460Y-97200000D01*
X126285674Y-97011744D01*
X126227179Y-96831716D01*
X126132533Y-96667784D01*
X126056167Y-96582971D01*
X126025937Y-96519980D01*
X126034562Y-96450644D01*
X126056164Y-96417031D01*
X126132533Y-96332216D01*
X126227179Y-96168284D01*
X126285674Y-95988256D01*
X126305460Y-95800000D01*
X126285674Y-95611744D01*
X126227179Y-95431716D01*
X126132533Y-95267784D01*
X126005871Y-95127112D01*
X125970051Y-95101087D01*
X125852734Y-95015851D01*
X125852729Y-95015848D01*
X125679807Y-94938857D01*
X125679802Y-94938855D01*
X125534001Y-94907865D01*
X125494646Y-94899500D01*
X125305354Y-94899500D01*
X125272897Y-94906398D01*
X125120197Y-94938855D01*
X125120192Y-94938857D01*
X124947270Y-95015848D01*
X124947265Y-95015851D01*
X124794129Y-95127111D01*
X124667466Y-95267785D01*
X124572821Y-95431715D01*
X124572818Y-95431722D01*
X124529077Y-95566344D01*
X124514326Y-95611744D01*
X124494540Y-95800000D01*
X124514326Y-95988256D01*
X124514327Y-95988259D01*
X124572818Y-96168277D01*
X124572821Y-96168284D01*
X124667467Y-96332216D01*
X124743833Y-96417029D01*
X124774062Y-96480018D01*
X124765437Y-96549353D01*
X124743832Y-96582971D01*
X124667466Y-96667784D01*
X124572821Y-96831715D01*
X124572818Y-96831722D01*
X124518433Y-96999103D01*
X124514326Y-97011744D01*
X124494540Y-97200000D01*
X119988669Y-97200000D01*
X119999749Y-91955000D01*
X120574134Y-91955000D01*
X120574431Y-91956946D01*
X120574433Y-91956952D01*
X120645062Y-92147657D01*
X120645065Y-92147664D01*
X120752649Y-92320267D01*
X120892764Y-92467668D01*
X120892766Y-92467669D01*
X121059695Y-92583856D01*
X121246592Y-92664059D01*
X121445810Y-92705000D01*
X121697500Y-92705000D01*
X121697500Y-92005000D01*
X122197500Y-92005000D01*
X122197500Y-92705000D01*
X122398213Y-92705000D01*
X122549838Y-92689581D01*
X122743881Y-92628700D01*
X122743891Y-92628695D01*
X122921715Y-92529994D01*
X122921716Y-92529994D01*
X123076030Y-92397521D01*
X123076031Y-92397520D01*
X123200518Y-92236695D01*
X123290088Y-92054093D01*
X123315746Y-91955000D01*
X124574134Y-91955000D01*
X124574431Y-91956946D01*
X124574433Y-91956952D01*
X124645062Y-92147657D01*
X124645065Y-92147664D01*
X124752649Y-92320267D01*
X124892764Y-92467668D01*
X124892766Y-92467669D01*
X125059695Y-92583856D01*
X125090143Y-92596922D01*
X125143986Y-92641448D01*
X125165210Y-92708017D01*
X125147075Y-92775492D01*
X125139620Y-92786358D01*
X125094801Y-92844767D01*
X125094800Y-92844769D01*
X125036813Y-92984763D01*
X125036812Y-92984765D01*
X125017034Y-93134999D01*
X125017034Y-93135000D01*
X125036812Y-93285234D01*
X125036813Y-93285236D01*
X125094802Y-93425233D01*
X125187049Y-93545451D01*
X125307267Y-93637698D01*
X125447264Y-93695687D01*
X125559780Y-93710500D01*
X125559787Y-93710500D01*
X125635213Y-93710500D01*
X125635220Y-93710500D01*
X125747736Y-93695687D01*
X125887733Y-93637698D01*
X126007951Y-93545451D01*
X126100198Y-93425233D01*
X126158187Y-93285236D01*
X126177966Y-93135000D01*
X126174682Y-93110059D01*
X126158187Y-92984765D01*
X126158187Y-92984764D01*
X126113323Y-92876453D01*
X126105854Y-92806983D01*
X126137129Y-92744504D01*
X126197218Y-92708852D01*
X126227884Y-92705000D01*
X126698213Y-92705000D01*
X126849838Y-92689581D01*
X127043881Y-92628700D01*
X127043891Y-92628695D01*
X127221715Y-92529994D01*
X127221716Y-92529994D01*
X127376030Y-92397521D01*
X127376031Y-92397520D01*
X127500518Y-92236695D01*
X127590088Y-92054093D01*
X127615746Y-91955000D01*
X126813611Y-91955000D01*
X126853110Y-91930543D01*
X126920701Y-91841038D01*
X126951395Y-91733160D01*
X126941841Y-91630055D01*
X139399500Y-91630055D01*
X139440210Y-91795226D01*
X139519263Y-91945849D01*
X139535772Y-91964484D01*
X139632071Y-92073183D01*
X139722318Y-92135476D01*
X139772068Y-92169817D01*
X139772069Y-92169817D01*
X139772070Y-92169818D01*
X139931128Y-92230140D01*
X140007028Y-92239356D01*
X140057626Y-92245500D01*
X140057628Y-92245500D01*
X140142374Y-92245500D01*
X140184538Y-92240380D01*
X140268872Y-92230140D01*
X140427930Y-92169818D01*
X140567929Y-92073183D01*
X140680734Y-91945852D01*
X140700873Y-91907482D01*
X140724838Y-91861819D01*
X140759790Y-91795225D01*
X140800500Y-91630056D01*
X140800500Y-91459944D01*
X140759790Y-91294775D01*
X140759789Y-91294773D01*
X140680736Y-91144150D01*
X140661560Y-91122505D01*
X140567929Y-91016817D01*
X140518177Y-90982475D01*
X140427931Y-90920182D01*
X140268874Y-90859860D01*
X140268868Y-90859859D01*
X140142374Y-90844500D01*
X140142372Y-90844500D01*
X140057628Y-90844500D01*
X140057626Y-90844500D01*
X139931131Y-90859859D01*
X139931125Y-90859860D01*
X139772068Y-90920182D01*
X139632072Y-91016816D01*
X139519263Y-91144150D01*
X139440210Y-91294773D01*
X139399500Y-91459944D01*
X139399500Y-91630055D01*
X126941841Y-91630055D01*
X126941046Y-91621479D01*
X126891052Y-91521078D01*
X126818569Y-91455000D01*
X127620866Y-91455000D01*
X127620568Y-91453053D01*
X127620566Y-91453047D01*
X127549937Y-91262342D01*
X127549934Y-91262335D01*
X127442350Y-91089732D01*
X127302235Y-90942331D01*
X127302233Y-90942330D01*
X127135304Y-90826143D01*
X126948407Y-90745940D01*
X126749190Y-90705000D01*
X126347500Y-90705000D01*
X126347500Y-91405000D01*
X125847500Y-91405000D01*
X125847500Y-90705000D01*
X125496787Y-90705000D01*
X125345161Y-90720418D01*
X125151118Y-90781299D01*
X125151108Y-90781304D01*
X124973284Y-90880005D01*
X124973283Y-90880005D01*
X124818969Y-91012478D01*
X124818968Y-91012479D01*
X124694481Y-91173304D01*
X124604911Y-91355906D01*
X124579254Y-91455000D01*
X125381389Y-91455000D01*
X125341890Y-91479457D01*
X125274299Y-91568962D01*
X125243605Y-91676840D01*
X125253954Y-91788521D01*
X125303948Y-91888922D01*
X125376431Y-91955000D01*
X124574134Y-91955000D01*
X123315746Y-91955000D01*
X122513611Y-91955000D01*
X122553110Y-91930543D01*
X122620701Y-91841038D01*
X122651395Y-91733160D01*
X122641046Y-91621479D01*
X122591052Y-91521078D01*
X122518569Y-91455000D01*
X123320866Y-91455000D01*
X123320568Y-91453053D01*
X123320566Y-91453047D01*
X123249937Y-91262342D01*
X123249934Y-91262335D01*
X123142350Y-91089732D01*
X123002235Y-90942331D01*
X123002233Y-90942330D01*
X122835304Y-90826143D01*
X122648407Y-90745940D01*
X122449190Y-90705000D01*
X122197500Y-90705000D01*
X122197500Y-91405000D01*
X121697500Y-91405000D01*
X121697500Y-90705000D01*
X121496787Y-90705000D01*
X121345161Y-90720418D01*
X121151118Y-90781299D01*
X121151108Y-90781304D01*
X120973284Y-90880005D01*
X120973283Y-90880005D01*
X120818969Y-91012478D01*
X120818968Y-91012479D01*
X120694481Y-91173304D01*
X120604911Y-91355906D01*
X120579254Y-91455000D01*
X121381389Y-91455000D01*
X121341890Y-91479457D01*
X121274299Y-91568962D01*
X121243605Y-91676840D01*
X121253954Y-91788521D01*
X121303948Y-91888922D01*
X121376431Y-91955000D01*
X120574134Y-91955000D01*
X119999749Y-91955000D01*
X120000390Y-91651706D01*
X120000500Y-91651337D01*
X120000500Y-91602212D01*
X120000658Y-91597788D01*
X120005481Y-91530362D01*
X120011565Y-91453053D01*
X120018229Y-91368379D01*
X120019452Y-91360084D01*
X120041126Y-91260451D01*
X120071444Y-91134171D01*
X120073629Y-91127012D01*
X120111626Y-91025139D01*
X120115475Y-91015848D01*
X120159087Y-90910558D01*
X120161923Y-90904631D01*
X120214715Y-90807948D01*
X120216174Y-90805428D01*
X120279211Y-90702562D01*
X120282412Y-90697845D01*
X120349028Y-90608856D01*
X120351476Y-90605797D01*
X120429196Y-90514798D01*
X120432456Y-90511272D01*
X120511272Y-90432456D01*
X120514798Y-90429196D01*
X120605797Y-90351476D01*
X120608856Y-90349028D01*
X120697845Y-90282412D01*
X120702562Y-90279211D01*
X120805428Y-90216174D01*
X120807948Y-90214715D01*
X120904631Y-90161923D01*
X120910558Y-90159087D01*
X121025121Y-90111633D01*
X121127012Y-90073629D01*
X121134171Y-90071444D01*
X121260451Y-90041126D01*
X121360084Y-90019452D01*
X121368379Y-90018229D01*
X121496802Y-90008121D01*
X121530362Y-90005481D01*
X121575583Y-90002246D01*
X121597792Y-90000657D01*
X121602213Y-90000500D01*
X168975240Y-90000500D01*
X168975383Y-90000528D01*
X168975384Y-90000524D01*
X168999997Y-90000539D01*
X169000000Y-90000541D01*
X169000383Y-90000383D01*
X169000500Y-90000099D01*
X169000541Y-90000000D01*
X169000540Y-89999997D01*
X169000583Y-89975889D01*
X169000500Y-89975467D01*
X169000500Y-89124500D01*
X169020185Y-89057461D01*
X169072989Y-89011706D01*
X169124500Y-89000500D01*
X174775500Y-89000500D01*
X174842539Y-89020185D01*
G37*
%TD.AperFunction*%
%TD*%
M02*
