%TF.GenerationSoftware,KiCad,Pcbnew,7.0.8*%
%TF.CreationDate,2024-02-13T10:47:56-06:00*%
%TF.ProjectId,SerialClamp,53657269-616c-4436-9c61-6d702e6b6963,rev?*%
%TF.SameCoordinates,Original*%
%TF.FileFunction,Paste,Top*%
%TF.FilePolarity,Positive*%
%FSLAX46Y46*%
G04 Gerber Fmt 4.6, Leading zero omitted, Abs format (unit mm)*
G04 Created by KiCad (PCBNEW 7.0.8) date 2024-02-13 10:47:56*
%MOMM*%
%LPD*%
G01*
G04 APERTURE LIST*
G04 Aperture macros list*
%AMRoundRect*
0 Rectangle with rounded corners*
0 $1 Rounding radius*
0 $2 $3 $4 $5 $6 $7 $8 $9 X,Y pos of 4 corners*
0 Add a 4 corners polygon primitive as box body*
4,1,4,$2,$3,$4,$5,$6,$7,$8,$9,$2,$3,0*
0 Add four circle primitives for the rounded corners*
1,1,$1+$1,$2,$3*
1,1,$1+$1,$4,$5*
1,1,$1+$1,$6,$7*
1,1,$1+$1,$8,$9*
0 Add four rect primitives between the rounded corners*
20,1,$1+$1,$2,$3,$4,$5,0*
20,1,$1+$1,$4,$5,$6,$7,0*
20,1,$1+$1,$6,$7,$8,$9,0*
20,1,$1+$1,$8,$9,$2,$3,0*%
G04 Aperture macros list end*
%ADD10R,1.500000X2.000000*%
%ADD11R,3.800000X2.000000*%
%ADD12R,1.400000X0.300000*%
%ADD13R,1.000000X0.800000*%
%ADD14R,0.700000X1.500000*%
%ADD15R,0.640000X0.700000*%
%ADD16R,0.500000X0.700000*%
%ADD17R,1.400000X0.250000*%
%ADD18RoundRect,0.218750X-0.256250X0.218750X-0.256250X-0.218750X0.256250X-0.218750X0.256250X0.218750X0*%
%ADD19RoundRect,0.243750X0.243750X0.456250X-0.243750X0.456250X-0.243750X-0.456250X0.243750X-0.456250X0*%
%ADD20RoundRect,0.250000X0.250000X0.475000X-0.250000X0.475000X-0.250000X-0.475000X0.250000X-0.475000X0*%
%ADD21RoundRect,0.250000X-0.250000X-0.475000X0.250000X-0.475000X0.250000X0.475000X-0.250000X0.475000X0*%
G04 APERTURE END LIST*
D10*
%TO.C,U2*%
X147400000Y-100200000D03*
D11*
X149700000Y-93900000D03*
D10*
X149700000Y-100200000D03*
X152000000Y-100200000D03*
%TD*%
D12*
%TO.C,U1*%
X134000000Y-95800000D03*
X134000000Y-96300000D03*
X134000000Y-96800000D03*
X134000000Y-97300000D03*
X134000000Y-97800000D03*
X129600000Y-97800000D03*
X129600000Y-97300000D03*
X129600000Y-96800000D03*
X129600000Y-96300000D03*
X129600000Y-95800000D03*
%TD*%
D13*
%TO.C,SW1*%
X137950000Y-92655000D03*
X145250000Y-90445000D03*
X137950000Y-90445000D03*
X145250000Y-92655000D03*
D14*
X143850000Y-93305000D03*
X140850000Y-93305000D03*
X139350000Y-93305000D03*
%TD*%
D15*
%TO.C,RN2*%
X156940000Y-91200000D03*
D16*
X156070000Y-91200000D03*
X155270000Y-91200000D03*
D15*
X154400000Y-91200000D03*
X154400000Y-92600000D03*
D16*
X155270000Y-92600000D03*
X156070000Y-92600000D03*
D15*
X156940000Y-92600000D03*
%TD*%
%TO.C,RN1*%
X130670000Y-92840000D03*
D16*
X131540000Y-92840000D03*
X132340000Y-92840000D03*
D15*
X133210000Y-92840000D03*
X133210000Y-91440000D03*
D16*
X132340000Y-91440000D03*
X131540000Y-91440000D03*
D15*
X130670000Y-91440000D03*
%TD*%
D17*
%TO.C,J1*%
X126797500Y-92950000D03*
X126797500Y-93750000D03*
X126797500Y-97275000D03*
X126797500Y-95275000D03*
X126797500Y-96775000D03*
X126797500Y-97775000D03*
X126797500Y-98300000D03*
X126797500Y-99100000D03*
X126797500Y-99350000D03*
X126797500Y-98550000D03*
X126797500Y-94275000D03*
X126797500Y-96275000D03*
X126797500Y-95775000D03*
X126797500Y-94775000D03*
X126797500Y-93500000D03*
X126797500Y-92700000D03*
%TD*%
D18*
%TO.C,F1*%
X135400000Y-93600000D03*
X135400000Y-92025000D03*
%TD*%
D19*
%TO.C,D3*%
X164737500Y-91800000D03*
X162862500Y-91800000D03*
%TD*%
%TO.C,D2*%
X164737500Y-96000000D03*
X162862500Y-96000000D03*
%TD*%
%TO.C,D1*%
X164737500Y-100200000D03*
X162862500Y-100200000D03*
%TD*%
D20*
%TO.C,C4*%
X144750000Y-96600000D03*
X142850000Y-96600000D03*
%TD*%
D21*
%TO.C,C3*%
X154850000Y-99800000D03*
X156750000Y-99800000D03*
%TD*%
%TO.C,C2*%
X135950000Y-100160000D03*
X134050000Y-100160000D03*
%TD*%
D20*
%TO.C,C1*%
X129850000Y-100170000D03*
X131750000Y-100170000D03*
%TD*%
M02*
