M48
; DRILL file {KiCad 7.0.8} date Tue Feb 13 10:47:59 2024
; FORMAT={-:-/ absolute / inch / decimal}
; #@! TF.CreationDate,2024-02-13T10:47:59-06:00
; #@! TF.GenerationSoftware,Kicad,Pcbnew,7.0.8
; #@! TF.FileFunction,MixedPlating,1,2
FMAT,2
INCH
; #@! TA.AperFunction,Plated,PTH,ViaDrill
T1C0.0157
; #@! TA.AperFunction,Plated,PTH,ComponentDrill
T2C0.0236
; #@! TA.AperFunction,Plated,PTH,ComponentDrill
T3C0.0394
; #@! TA.AperFunction,NonPlated,NPTH,ComponentDrill
T4C0.0256
; #@! TA.AperFunction,NonPlated,NPTH,ComponentDrill
T5C0.0354
; #@! TA.AperFunction,NonPlated,NPTH,ComponentDrill
T6C0.0866
%
G90
G05
T1
X4.7874Y-3.6929
X4.7874Y-3.8504
X4.937Y-3.7717
X4.937Y-3.8268
X5.0472Y-3.8268
X5.0531Y-3.874
X5.0787Y-3.622
X5.0906Y-3.7185
X5.1102Y-3.8898
X5.1575Y-3.7402
X5.1968Y-3.8022
X5.2269Y-3.8669
X5.315Y-3.8898
X5.3701Y-3.5748
X5.5034Y-3.8263
X5.5428Y-3.8269
X5.6311Y-3.7335
X5.8031Y-3.811
X5.937Y-3.874
X6.0Y-3.8031
X6.0236Y-3.6299
X6.0472Y-3.5906
X6.2283Y-3.6142
X6.2598Y-3.9449
T3
X6.8138Y-3.5807
X6.8138Y-3.6807
X6.8138Y-3.7807
X6.8138Y-3.8807
X6.8138Y-3.9807
T4
X4.9448Y-3.6667
X4.9448Y-3.8943
T5
X5.5157Y-3.6041
X5.6339Y-3.6041
T6
X5.4173Y-3.7795
X6.2823Y-3.7805
T2
G00X4.8168Y-3.6104
M15
G01X4.7853Y-3.6104
M16
G05
G00X4.8168Y-3.9506
M15
G01X4.7853Y-3.9506
M16
G05
G00X4.9861Y-3.6104
M15
G01X4.9428Y-3.6104
M16
G05
G00X4.9861Y-3.9506
M15
G01X4.9428Y-3.9506
M16
G05
T0
M30
